  0
SECTION
  2
HEADER
  9
$ACADVER
  1
AC1014
  9
$HANDSEED
  5
FFFF
  9
$MEASUREMENT
 70
     1
  0
ENDSEC
  0
SECTION
  2
TABLES
  0
TABLE
  2
VPORT
  5
8
330
0
100
AcDbSymbolTable
 70
     4
  0
VPORT
  5
2E
330
8
100
AcDbSymbolTableRecord
100
AcDbViewportTableRecord
  2
*ACTIVE
 70
     0
 10
0.0
 20
0.0
 11
1.0
 21
1.0
 12
210.0
 22
148.5
 13
0.0
 23
0.0
 14
10.0
 24
10.0
 15
10.0
 25
10.0
 16
0.0
 26
0.0
 36
1.0
 17
0.0
 27
0.0
 37
0.0
 40
341.0
 41
1.24
 42
50.0
 43
0.0
 44
0.0
 50
0.0
 51
0.0
 71
     0
 72
   100
 73
     1
 74
     3
 75
     0
 76
     0
 77
     0
 78
     0
  0
ENDTAB
  0
TABLE
  2
LTYPE
  5
5
330
0
100
AcDbSymbolTable
 70
     1
  0
LTYPE
  5
14
330
5
100
AcDbSymbolTableRecord
100
AcDbLinetypeTableRecord
  2
BYBLOCK
 70
     0
  3

 72
    65
 73
     0
 40
0.0
  0
LTYPE
  5
15
330
5
100
AcDbSymbolTableRecord
100
AcDbLinetypeTableRecord
  2
BYLAYER
 70
     0
  3

 72
    65
 73
     0
 40
0.0
  0
LTYPE
  5
16
330
5
100
AcDbSymbolTableRecord
100
AcDbLinetypeTableRecord
  2
CONTINUOUS
 70
     0
  3
Solid line
 72
    65
 73
     0
 40
0.0
  0
ENDTAB
  0
TABLE
  2
LAYER
  5
2
100
AcDbSymbolTable
 70
2
  0
LAYER
  5
50
100
AcDbSymbolTableRecord
100
AcDbLayerTableRecord
  2
0
 70
0
  6
CONTINUOUS
  0
LAYER
  5
51
100
AcDbSymbolTableRecord
100
AcDbLayerTableRecord
  2
Layer_1
 70
0
  6
CONTINUOUS
  0
ENDTAB
  0
TABLE
  2
STYLE
  5
3
330
0
100
AcDbSymbolTable
 70
     1
  0
STYLE
  5
11
330
3
100
AcDbSymbolTableRecord
100
AcDbTextStyleTableRecord
  2
STANDARD
 70
     0
 40
0.0
 41
1.0
 50
0.0
 71
     0
 42
2.5
  3
txt
  4

  0
ENDTAB
  0
TABLE
  2
VIEW
  5
6
330
0
100
AcDbSymbolTable
 70
     0
  0
ENDTAB
  0
TABLE
  2
UCS
  5
7
330
0
100
AcDbSymbolTable
 70
     0
  0
ENDTAB
  0
TABLE
  2
APPID
  5
9
330
0
100
AcDbSymbolTable
 70
     2
  0
APPID
  5
12
330
9
100
AcDbSymbolTableRecord
100
AcDbRegAppTableRecord
  2
ACAD
 70
     0
  0
ENDTAB
  0
TABLE
  2
DIMSTYLE
  5
A
330
0
100
AcDbSymbolTable
 70
     1
  0
DIMSTYLE
105
27
330
A
100
AcDbSymbolTableRecord
100
AcDbDimStyleTableRecord
  2
ISO-25
 70
     0
  3

  4

  5

  6

  7

 40
1.0
 41
2.5
 42
0.625
 43
3.75
 44
1.25
 45
0.0
 46
0.0
 47
0.0
 48
0.0
140
2.5
141
2.5
142
0.0
143
0.03937007874016
144
1.0
145
0.0
146
1.0
147
0.625
 71
     0
 72
     0
 73
     0
 74
     0
 75
     0
 76
     0
 77
     1
 78
     8
170
     0
171
     3
172
     1
173
     0
174
     0
175
     0
176
     0
177
     0
178
     0
270
     2
271
     2
272
     2
273
     2
274
     3
340
11
275
     0
280
     0
281
     0
282
     0
283
     0
284
     8
285
     0
286
     0
287
     3
288
     0
  0
ENDTAB
  0
TABLE
  2
BLOCK_RECORD
  5
1
330
0
100
AcDbSymbolTable
 70
     1
  0
BLOCK_RECORD
  5
1F
330
1
100
AcDbSymbolTableRecord
100
AcDbBlockTableRecord
  2
*MODEL_SPACE
  0
BLOCK_RECORD
  5
1B
330
1
100
AcDbSymbolTableRecord
100
AcDbBlockTableRecord
  2
*PAPER_SPACE
  0
ENDTAB
  0
ENDSEC
  0
SECTION
  2
BLOCKS
  0
BLOCK
  5
20
330
1F
100
AcDbEntity
  8
0
100
AcDbBlockBegin
  2
*MODEL_SPACE
 70
     0
 10
0.0
 20
0.0
 30
0.0
  3
*MODEL_SPACE
  1

  0
ENDBLK
  5
21
330
1F
100
AcDbEntity
  8
0
100
AcDbBlockEnd
  0
BLOCK
  5
1C
330
1B
100
AcDbEntity
 67
     1
  8
0
100
AcDbBlockBegin
  2
*PAPER_SPACE
  1

  0
ENDBLK
  5
1D
330
1B
100
AcDbEntity
 67
     1
  8
0
100
AcDbBlockEnd
  0
ENDSEC
  0
SECTION
  2
ENTITIES
  0
SPLINE
  5
100
100
AcDbEntity
  8
Layer_1
 62
7
100
AcDbSpline
 70
8
 71
3
 72
8
 73
4
 74
0
 40
0
 40
0
 40
0
 40
0
 40
1
 40
1
 40
1
 40
1
 10
77.820046
 20
202.519362
 30
0.0
 10
77.820046
 20
202.867696
 30
0.0
 10
77.634212
 20
203.189570
 30
0.0
 10
77.332546
 20
203.363737
 30
0.0
  0
SPLINE
  5
101
100
AcDbEntity
  8
Layer_1
 62
7
100
AcDbSpline
 70
8
 71
3
 72
8
 73
4
 74
0
 40
0
 40
0
 40
0
 40
0
 40
1
 40
1
 40
1
 40
1
 10
77.332546
 20
203.363737
 30
0.0
 10
77.030880
 20
203.537904
 30
0.0
 10
76.659212
 20
203.537904
 30
0.0
 10
76.357546
 20
203.363737
 30
0.0
  0
SPLINE
  5
102
100
AcDbEntity
  8
Layer_1
 62
7
100
AcDbSpline
 70
8
 71
3
 72
8
 73
4
 74
0
 40
0
 40
0
 40
0
 40
0
 40
1
 40
1
 40
1
 40
1
 10
76.357546
 20
203.363737
 30
0.0
 10
76.055880
 20
203.189570
 30
0.0
 10
75.870046
 20
202.867696
 30
0.0
 10
75.870046
 20
202.519362
 30
0.0
  0
SPLINE
  5
103
100
AcDbEntity
  8
Layer_1
 62
7
100
AcDbSpline
 70
8
 71
3
 72
8
 73
4
 74
0
 40
0
 40
0
 40
0
 40
0
 40
1
 40
1
 40
1
 40
1
 10
75.870046
 20
202.519362
 30
0.0
 10
75.870046
 20
202.171028
 30
0.0
 10
76.055880
 20
201.849154
 30
0.0
 10
76.357546
 20
201.674987
 30
0.0
  0
SPLINE
  5
104
100
AcDbEntity
  8
Layer_1
 62
7
100
AcDbSpline
 70
8
 71
3
 72
8
 73
4
 74
0
 40
0
 40
0
 40
0
 40
0
 40
1
 40
1
 40
1
 40
1
 10
76.357546
 20
201.674987
 30
0.0
 10
76.659212
 20
201.500820
 30
0.0
 10
77.030880
 20
201.500820
 30
0.0
 10
77.332546
 20
201.674987
 30
0.0
  0
SPLINE
  5
105
100
AcDbEntity
  8
Layer_1
 62
7
100
AcDbSpline
 70
8
 71
3
 72
8
 73
4
 74
0
 40
0
 40
0
 40
0
 40
0
 40
1
 40
1
 40
1
 40
1
 10
77.332546
 20
201.674987
 30
0.0
 10
77.634212
 20
201.849154
 30
0.0
 10
77.820046
 20
202.171028
 30
0.0
 10
77.820046
 20
202.519362
 30
0.0
  0
LWPOLYLINE
  5
106
100
AcDbEntity
  8
Layer_1
 62
7
100
AcDbPolyline
 90
16
 70
1
 10
51.087943
 20
261.096683
 30
0.0
 10
102.602150
 20
261.096683
 30
0.0
 10
101.772820
 20
258.001587
 30
0.0
 10
104.038600
 20
255.735801
 30
0.0
 10
107.133700
 20
256.565138
 30
0.0
 10
107.133700
 20
205.050922
 30
0.0
 10
104.038600
 20
205.880258
 30
0.0
 10
101.772820
 20
203.614473
 30
0.0
 10
102.602150
 20
200.519377
 30
0.0
 10
51.087943
 20
200.519377
 30
0.0
 10
51.917275
 20
203.614473
 30
0.0
 10
49.651497
 20
205.880258
 30
0.0
 10
46.556388
 20
205.050922
 30
0.0
 10
46.556388
 20
256.565138
 30
0.0
 10
49.651497
 20
255.735801
 30
0.0
 10
51.917275
 20
258.001587
 30
0.0
  0
SPLINE
  5
107
100
AcDbEntity
  8
Layer_1
 62
7
100
AcDbSpline
 70
8
 71
3
 72
8
 73
4
 74
0
 40
0
 40
0
 40
0
 40
0
 40
1
 40
1
 40
1
 40
1
 10
106.108710
 20
230.808030
 30
0.0
 10
106.108903
 20
231.156493
 30
0.0
 10
105.923112
 20
231.478568
 30
0.0
 10
105.621366
 20
231.652856
 30
0.0
  0
SPLINE
  5
108
100
AcDbEntity
  8
Layer_1
 62
7
100
AcDbSpline
 70
8
 71
3
 72
8
 73
4
 74
0
 40
0
 40
0
 40
0
 40
0
 40
1
 40
1
 40
1
 40
1
 10
105.621366
 20
231.652856
 30
0.0
 10
105.319621
 20
231.827143
 30
0.0
 10
104.947799
 20
231.827143
 30
0.0
 10
104.646054
 20
231.652856
 30
0.0
  0
SPLINE
  5
109
100
AcDbEntity
  8
Layer_1
 62
7
100
AcDbSpline
 70
8
 71
3
 72
8
 73
4
 74
0
 40
0
 40
0
 40
0
 40
0
 40
1
 40
1
 40
1
 40
1
 10
104.646054
 20
231.652856
 30
0.0
 10
104.344308
 20
231.478568
 30
0.0
 10
104.158517
 20
231.156493
 30
0.0
 10
104.158710
 20
230.808030
 30
0.0
  0
SPLINE
  5
10a
100
AcDbEntity
  8
Layer_1
 62
7
100
AcDbSpline
 70
8
 71
3
 72
8
 73
4
 74
0
 40
0
 40
0
 40
0
 40
0
 40
1
 40
1
 40
1
 40
1
 10
104.158710
 20
230.808030
 30
0.0
 10
104.158517
 20
230.459567
 30
0.0
 10
104.344308
 20
230.137492
 30
0.0
 10
104.646054
 20
229.963204
 30
0.0
  0
SPLINE
  5
10b
100
AcDbEntity
  8
Layer_1
 62
7
100
AcDbSpline
 70
8
 71
3
 72
8
 73
4
 74
0
 40
0
 40
0
 40
0
 40
0
 40
1
 40
1
 40
1
 40
1
 10
104.646054
 20
229.963204
 30
0.0
 10
104.947799
 20
229.788917
 30
0.0
 10
105.319621
 20
229.788917
 30
0.0
 10
105.621366
 20
229.963204
 30
0.0
  0
SPLINE
  5
10c
100
AcDbEntity
  8
Layer_1
 62
7
100
AcDbSpline
 70
8
 71
3
 72
8
 73
4
 74
0
 40
0
 40
0
 40
0
 40
0
 40
1
 40
1
 40
1
 40
1
 10
105.621366
 20
229.963204
 30
0.0
 10
105.923112
 20
230.137492
 30
0.0
 10
106.108903
 20
230.459567
 30
0.0
 10
106.108710
 20
230.808030
 30
0.0
  0
LWPOLYLINE
  5
10d
100
AcDbEntity
  8
Layer_1
 62
7
100
AcDbPolyline
 90
1
 70
1
 10
77.820046
 20
202.519362
 30
0.0
  0
SPLINE
  5
10e
100
AcDbEntity
  8
Layer_1
 62
7
100
AcDbSpline
 70
8
 71
3
 72
8
 73
4
 74
0
 40
0
 40
0
 40
0
 40
0
 40
1
 40
1
 40
1
 40
1
 10
49.531387
 20
230.808030
 30
0.0
 10
49.531387
 20
231.156364
 30
0.0
 10
49.345553
 20
231.478238
 30
0.0
 10
49.043887
 20
231.652405
 30
0.0
  0
SPLINE
  5
10f
100
AcDbEntity
  8
Layer_1
 62
7
100
AcDbSpline
 70
8
 71
3
 72
8
 73
4
 74
0
 40
0
 40
0
 40
0
 40
0
 40
1
 40
1
 40
1
 40
1
 10
49.043887
 20
231.652405
 30
0.0
 10
48.742221
 20
231.826572
 30
0.0
 10
48.370552
 20
231.826572
 30
0.0
 10
48.068886
 20
231.652405
 30
0.0
  0
SPLINE
  5
110
100
AcDbEntity
  8
Layer_1
 62
7
100
AcDbSpline
 70
8
 71
3
 72
8
 73
4
 74
0
 40
0
 40
0
 40
0
 40
0
 40
1
 40
1
 40
1
 40
1
 10
48.068886
 20
231.652405
 30
0.0
 10
47.767220
 20
231.478238
 30
0.0
 10
47.581386
 20
231.156364
 30
0.0
 10
47.581386
 20
230.808030
 30
0.0
  0
SPLINE
  5
111
100
AcDbEntity
  8
Layer_1
 62
7
100
AcDbSpline
 70
8
 71
3
 72
8
 73
4
 74
0
 40
0
 40
0
 40
0
 40
0
 40
1
 40
1
 40
1
 40
1
 10
47.581386
 20
230.808030
 30
0.0
 10
47.581386
 20
230.459696
 30
0.0
 10
47.767220
 20
230.137822
 30
0.0
 10
48.068886
 20
229.963655
 30
0.0
  0
SPLINE
  5
112
100
AcDbEntity
  8
Layer_1
 62
7
100
AcDbSpline
 70
8
 71
3
 72
8
 73
4
 74
0
 40
0
 40
0
 40
0
 40
0
 40
1
 40
1
 40
1
 40
1
 10
48.068886
 20
229.963655
 30
0.0
 10
48.370552
 20
229.789488
 30
0.0
 10
48.742221
 20
229.789488
 30
0.0
 10
49.043887
 20
229.963655
 30
0.0
  0
SPLINE
  5
113
100
AcDbEntity
  8
Layer_1
 62
7
100
AcDbSpline
 70
8
 71
3
 72
8
 73
4
 74
0
 40
0
 40
0
 40
0
 40
0
 40
1
 40
1
 40
1
 40
1
 10
49.043887
 20
229.963655
 30
0.0
 10
49.345553
 20
230.137822
 30
0.0
 10
49.531387
 20
230.459696
 30
0.0
 10
49.531387
 20
230.808030
 30
0.0
  0
LWPOLYLINE
  5
114
100
AcDbEntity
  8
Layer_1
 62
7
100
AcDbPolyline
 90
1
 70
1
 10
106.108710
 20
230.808030
 30
0.0
  0
LWPOLYLINE
  5
115
100
AcDbEntity
  8
Layer_1
 62
7
100
AcDbPolyline
 90
1
 70
1
 10
49.531387
 20
230.808030
 30
0.0
  0
SPLINE
  5
116
100
AcDbEntity
  8
Layer_1
 62
7
100
AcDbSpline
 70
8
 71
3
 72
8
 73
4
 74
0
 40
0
 40
0
 40
0
 40
0
 40
1
 40
1
 40
1
 40
1
 10
144.416960
 20
202.276809
 30
0.0
 10
144.417166
 20
202.625280
 30
0.0
 10
144.231377
 20
202.947369
 30
0.0
 10
143.929626
 20
203.121664
 30
0.0
  0
SPLINE
  5
117
100
AcDbEntity
  8
Layer_1
 62
7
100
AcDbSpline
 70
8
 71
3
 72
8
 73
4
 74
0
 40
0
 40
0
 40
0
 40
0
 40
1
 40
1
 40
1
 40
1
 10
143.929626
 20
203.121664
 30
0.0
 10
143.627876
 20
203.295959
 30
0.0
 10
143.256044
 20
203.295959
 30
0.0
 10
142.954294
 20
203.121664
 30
0.0
  0
SPLINE
  5
118
100
AcDbEntity
  8
Layer_1
 62
7
100
AcDbSpline
 70
8
 71
3
 72
8
 73
4
 74
0
 40
0
 40
0
 40
0
 40
0
 40
1
 40
1
 40
1
 40
1
 10
142.954294
 20
203.121664
 30
0.0
 10
142.652543
 20
202.947369
 30
0.0
 10
142.466754
 20
202.625280
 30
0.0
 10
142.466960
 20
202.276809
 30
0.0
  0
SPLINE
  5
119
100
AcDbEntity
  8
Layer_1
 62
7
100
AcDbSpline
 70
8
 71
3
 72
8
 73
4
 74
0
 40
0
 40
0
 40
0
 40
0
 40
1
 40
1
 40
1
 40
1
 10
142.466960
 20
202.276809
 30
0.0
 10
142.466754
 20
201.928338
 30
0.0
 10
142.652543
 20
201.606249
 30
0.0
 10
142.954294
 20
201.431954
 30
0.0
  0
SPLINE
  5
11a
100
AcDbEntity
  8
Layer_1
 62
7
100
AcDbSpline
 70
8
 71
3
 72
8
 73
4
 74
0
 40
0
 40
0
 40
0
 40
0
 40
1
 40
1
 40
1
 40
1
 10
142.954294
 20
201.431954
 30
0.0
 10
143.256044
 20
201.257659
 30
0.0
 10
143.627876
 20
201.257659
 30
0.0
 10
143.929626
 20
201.431954
 30
0.0
  0
SPLINE
  5
11b
100
AcDbEntity
  8
Layer_1
 62
7
100
AcDbSpline
 70
8
 71
3
 72
8
 73
4
 74
0
 40
0
 40
0
 40
0
 40
0
 40
1
 40
1
 40
1
 40
1
 10
143.929626
 20
201.431954
 30
0.0
 10
144.231377
 20
201.606249
 30
0.0
 10
144.417166
 20
201.928338
 30
0.0
 10
144.416960
 20
202.276809
 30
0.0
  0
LWPOLYLINE
  5
11c
100
AcDbEntity
  8
Layer_1
 62
7
100
AcDbPolyline
 90
16
 70
1
 10
117.684860
 20
260.854130
 30
0.0
 10
169.199070
 20
260.854130
 30
0.0
 10
168.369740
 20
257.759034
 30
0.0
 10
170.635520
 20
255.493248
 30
0.0
 10
173.730620
 20
256.322585
 30
0.0
 10
173.730620
 20
204.808369
 30
0.0
 10
170.635520
 20
205.637705
 30
0.0
 10
168.369740
 20
203.371920
 30
0.0
 10
169.199070
 20
200.276824
 30
0.0
 10
117.684860
 20
200.276824
 30
0.0
 10
118.514190
 20
203.371920
 30
0.0
 10
116.248410
 20
205.637705
 30
0.0
 10
113.153310
 20
204.808369
 30
0.0
 10
113.153310
 20
256.322585
 30
0.0
 10
116.248410
 20
255.493248
 30
0.0
 10
118.514190
 20
257.759034
 30
0.0
  0
SPLINE
  5
11d
100
AcDbEntity
  8
Layer_1
 62
7
100
AcDbSpline
 70
8
 71
3
 72
8
 73
4
 74
0
 40
0
 40
0
 40
0
 40
0
 40
1
 40
1
 40
1
 40
1
 10
172.705630
 20
230.565477
 30
0.0
 10
172.705836
 20
230.913948
 30
0.0
 10
172.520047
 20
231.236037
 30
0.0
 10
172.218296
 20
231.410332
 30
0.0
  0
SPLINE
  5
11e
100
AcDbEntity
  8
Layer_1
 62
7
100
AcDbSpline
 70
8
 71
3
 72
8
 73
4
 74
0
 40
0
 40
0
 40
0
 40
0
 40
1
 40
1
 40
1
 40
1
 10
172.218296
 20
231.410332
 30
0.0
 10
171.916546
 20
231.584627
 30
0.0
 10
171.544714
 20
231.584627
 30
0.0
 10
171.242964
 20
231.410332
 30
0.0
  0
SPLINE
  5
11f
100
AcDbEntity
  8
Layer_1
 62
7
100
AcDbSpline
 70
8
 71
3
 72
8
 73
4
 74
0
 40
0
 40
0
 40
0
 40
0
 40
1
 40
1
 40
1
 40
1
 10
171.242964
 20
231.410332
 30
0.0
 10
170.941213
 20
231.236037
 30
0.0
 10
170.755424
 20
230.913948
 30
0.0
 10
170.755630
 20
230.565477
 30
0.0
  0
SPLINE
  5
120
100
AcDbEntity
  8
Layer_1
 62
7
100
AcDbSpline
 70
8
 71
3
 72
8
 73
4
 74
0
 40
0
 40
0
 40
0
 40
0
 40
1
 40
1
 40
1
 40
1
 10
170.755630
 20
230.565477
 30
0.0
 10
170.755424
 20
230.217006
 30
0.0
 10
170.941213
 20
229.894917
 30
0.0
 10
171.242964
 20
229.720622
 30
0.0
  0
SPLINE
  5
121
100
AcDbEntity
  8
Layer_1
 62
7
100
AcDbSpline
 70
8
 71
3
 72
8
 73
4
 74
0
 40
0
 40
0
 40
0
 40
0
 40
1
 40
1
 40
1
 40
1
 10
171.242964
 20
229.720622
 30
0.0
 10
171.544714
 20
229.546327
 30
0.0
 10
171.916546
 20
229.546327
 30
0.0
 10
172.218296
 20
229.720622
 30
0.0
  0
SPLINE
  5
122
100
AcDbEntity
  8
Layer_1
 62
7
100
AcDbSpline
 70
8
 71
3
 72
8
 73
4
 74
0
 40
0
 40
0
 40
0
 40
0
 40
1
 40
1
 40
1
 40
1
 10
172.218296
 20
229.720622
 30
0.0
 10
172.520047
 20
229.894917
 30
0.0
 10
172.705836
 20
230.217006
 30
0.0
 10
172.705630
 20
230.565477
 30
0.0
  0
LWPOLYLINE
  5
123
100
AcDbEntity
  8
Layer_1
 62
7
100
AcDbPolyline
 90
1
 70
1
 10
144.416960
 20
202.276809
 30
0.0
  0
SPLINE
  5
124
100
AcDbEntity
  8
Layer_1
 62
7
100
AcDbSpline
 70
8
 71
3
 72
8
 73
4
 74
0
 40
0
 40
0
 40
0
 40
0
 40
1
 40
1
 40
1
 40
1
 10
116.128300
 20
230.565477
 30
0.0
 10
116.128667
 20
230.914055
 30
0.0
 10
115.942913
 20
231.236312
 30
0.0
 10
115.641096
 20
231.410707
 30
0.0
  0
SPLINE
  5
125
100
AcDbEntity
  8
Layer_1
 62
7
100
AcDbSpline
 70
8
 71
3
 72
8
 73
4
 74
0
 40
0
 40
0
 40
0
 40
0
 40
1
 40
1
 40
1
 40
1
 10
115.641096
 20
231.410707
 30
0.0
 10
115.339280
 20
231.585102
 30
0.0
 10
114.967320
 20
231.585102
 30
0.0
 10
114.665504
 20
231.410707
 30
0.0
  0
SPLINE
  5
126
100
AcDbEntity
  8
Layer_1
 62
7
100
AcDbSpline
 70
8
 71
3
 72
8
 73
4
 74
0
 40
0
 40
0
 40
0
 40
0
 40
1
 40
1
 40
1
 40
1
 10
114.665504
 20
231.410707
 30
0.0
 10
114.363687
 20
231.236312
 30
0.0
 10
114.177933
 20
230.914055
 30
0.0
 10
114.178300
 20
230.565477
 30
0.0
  0
SPLINE
  5
127
100
AcDbEntity
  8
Layer_1
 62
7
100
AcDbSpline
 70
8
 71
3
 72
8
 73
4
 74
0
 40
0
 40
0
 40
0
 40
0
 40
1
 40
1
 40
1
 40
1
 10
114.178300
 20
230.565477
 30
0.0
 10
114.177933
 20
230.216899
 30
0.0
 10
114.363687
 20
229.894642
 30
0.0
 10
114.665504
 20
229.720247
 30
0.0
  0
SPLINE
  5
128
100
AcDbEntity
  8
Layer_1
 62
7
100
AcDbSpline
 70
8
 71
3
 72
8
 73
4
 74
0
 40
0
 40
0
 40
0
 40
0
 40
1
 40
1
 40
1
 40
1
 10
114.665504
 20
229.720247
 30
0.0
 10
114.967320
 20
229.545852
 30
0.0
 10
115.339280
 20
229.545852
 30
0.0
 10
115.641096
 20
229.720247
 30
0.0
  0
SPLINE
  5
129
100
AcDbEntity
  8
Layer_1
 62
7
100
AcDbSpline
 70
8
 71
3
 72
8
 73
4
 74
0
 40
0
 40
0
 40
0
 40
0
 40
1
 40
1
 40
1
 40
1
 10
115.641096
 20
229.720247
 30
0.0
 10
115.942913
 20
229.894642
 30
0.0
 10
116.128667
 20
230.216899
 30
0.0
 10
116.128300
 20
230.565477
 30
0.0
  0
LWPOLYLINE
  5
12a
100
AcDbEntity
  8
Layer_1
 62
7
100
AcDbPolyline
 90
1
 70
1
 10
172.705630
 20
230.565477
 30
0.0
  0
LWPOLYLINE
  5
12b
100
AcDbEntity
  8
Layer_1
 62
7
100
AcDbPolyline
 90
1
 70
1
 10
116.128300
 20
230.565477
 30
0.0
  0
ENDSEC
  0
SECTION
  2
OBJECTS
  0
DICTIONARY
  5
C
330
0
100
AcDbDictionary
  3
ACAD_GROUP
350
D
  3
ACAD_MLINESTYLE
350
17
  0
DICTIONARY
  5
D
330
C
100
AcDbDictionary
  0
DICTIONARY
  5
1A
330
C
100
AcDbDictionary
  0
DICTIONARY
  5
17
330
C
100
AcDbDictionary
  3
STANDARD
350
18
  0
DICTIONARY
  5
19
330
C
100
AcDbDictionary
  0
ENDSEC
  0
EOF
