  0
SECTION
  2
HEADER
  9
$ACADVER
  1
AC1014
  9
$HANDSEED
  5
FFFF
  9
$MEASUREMENT
 70
     1
  0
ENDSEC
  0
SECTION
  2
TABLES
  0
TABLE
  2
VPORT
  5
8
330
0
100
AcDbSymbolTable
 70
     4
  0
VPORT
  5
2E
330
8
100
AcDbSymbolTableRecord
100
AcDbViewportTableRecord
  2
*ACTIVE
 70
     0
 10
0.0
 20
0.0
 11
1.0
 21
1.0
 12
210.0
 22
148.5
 13
0.0
 23
0.0
 14
10.0
 24
10.0
 15
10.0
 25
10.0
 16
0.0
 26
0.0
 36
1.0
 17
0.0
 27
0.0
 37
0.0
 40
341.0
 41
1.24
 42
50.0
 43
0.0
 44
0.0
 50
0.0
 51
0.0
 71
     0
 72
   100
 73
     1
 74
     3
 75
     0
 76
     0
 77
     0
 78
     0
  0
ENDTAB
  0
TABLE
  2
LTYPE
  5
5
330
0
100
AcDbSymbolTable
 70
     1
  0
LTYPE
  5
14
330
5
100
AcDbSymbolTableRecord
100
AcDbLinetypeTableRecord
  2
BYBLOCK
 70
     0
  3

 72
    65
 73
     0
 40
0.0
  0
LTYPE
  5
15
330
5
100
AcDbSymbolTableRecord
100
AcDbLinetypeTableRecord
  2
BYLAYER
 70
     0
  3

 72
    65
 73
     0
 40
0.0
  0
LTYPE
  5
16
330
5
100
AcDbSymbolTableRecord
100
AcDbLinetypeTableRecord
  2
CONTINUOUS
 70
     0
  3
Solid line
 72
    65
 73
     0
 40
0.0
  0
ENDTAB
  0
TABLE
  2
LAYER
  5
2
100
AcDbSymbolTable
 70
2
  0
LAYER
  5
50
100
AcDbSymbolTableRecord
100
AcDbLayerTableRecord
  2
0
 70
0
  6
CONTINUOUS
  0
LAYER
  5
51
100
AcDbSymbolTableRecord
100
AcDbLayerTableRecord
  2
Layer_1
 70
0
  6
CONTINUOUS
  0
ENDTAB
  0
TABLE
  2
STYLE
  5
3
330
0
100
AcDbSymbolTable
 70
     1
  0
STYLE
  5
11
330
3
100
AcDbSymbolTableRecord
100
AcDbTextStyleTableRecord
  2
STANDARD
 70
     0
 40
0.0
 41
1.0
 50
0.0
 71
     0
 42
2.5
  3
txt
  4

  0
ENDTAB
  0
TABLE
  2
VIEW
  5
6
330
0
100
AcDbSymbolTable
 70
     0
  0
ENDTAB
  0
TABLE
  2
UCS
  5
7
330
0
100
AcDbSymbolTable
 70
     0
  0
ENDTAB
  0
TABLE
  2
APPID
  5
9
330
0
100
AcDbSymbolTable
 70
     2
  0
APPID
  5
12
330
9
100
AcDbSymbolTableRecord
100
AcDbRegAppTableRecord
  2
ACAD
 70
     0
  0
ENDTAB
  0
TABLE
  2
DIMSTYLE
  5
A
330
0
100
AcDbSymbolTable
 70
     1
  0
DIMSTYLE
105
27
330
A
100
AcDbSymbolTableRecord
100
AcDbDimStyleTableRecord
  2
ISO-25
 70
     0
  3

  4

  5

  6

  7

 40
1.0
 41
2.5
 42
0.625
 43
3.75
 44
1.25
 45
0.0
 46
0.0
 47
0.0
 48
0.0
140
2.5
141
2.5
142
0.0
143
0.03937007874016
144
1.0
145
0.0
146
1.0
147
0.625
 71
     0
 72
     0
 73
     0
 74
     0
 75
     0
 76
     0
 77
     1
 78
     8
170
     0
171
     3
172
     1
173
     0
174
     0
175
     0
176
     0
177
     0
178
     0
270
     2
271
     2
272
     2
273
     2
274
     3
340
11
275
     0
280
     0
281
     0
282
     0
283
     0
284
     8
285
     0
286
     0
287
     3
288
     0
  0
ENDTAB
  0
TABLE
  2
BLOCK_RECORD
  5
1
330
0
100
AcDbSymbolTable
 70
     1
  0
BLOCK_RECORD
  5
1F
330
1
100
AcDbSymbolTableRecord
100
AcDbBlockTableRecord
  2
*MODEL_SPACE
  0
BLOCK_RECORD
  5
1B
330
1
100
AcDbSymbolTableRecord
100
AcDbBlockTableRecord
  2
*PAPER_SPACE
  0
ENDTAB
  0
ENDSEC
  0
SECTION
  2
BLOCKS
  0
BLOCK
  5
20
330
1F
100
AcDbEntity
  8
0
100
AcDbBlockBegin
  2
*MODEL_SPACE
 70
     0
 10
0.0
 20
0.0
 30
0.0
  3
*MODEL_SPACE
  1

  0
ENDBLK
  5
21
330
1F
100
AcDbEntity
  8
0
100
AcDbBlockEnd
  0
BLOCK
  5
1C
330
1B
100
AcDbEntity
 67
     1
  8
0
100
AcDbBlockBegin
  2
*PAPER_SPACE
  1

  0
ENDBLK
  5
1D
330
1B
100
AcDbEntity
 67
     1
  8
0
100
AcDbBlockEnd
  0
ENDSEC
  0
SECTION
  2
ENTITIES
  0
SPLINE
  5
100
100
AcDbEntity
  8
Layer_1
 62
7
100
AcDbSpline
 70
8
 71
3
 72
8
 73
4
 74
0
 40
0
 40
0
 40
0
 40
0
 40
1
 40
1
 40
1
 40
1
 10
179.884520
 20
142.088090
 30
0.0
 10
179.884750
 20
142.829570
 30
0.0
 10
179.489308
 20
143.514823
 30
0.0
 10
178.847206
 20
143.885630
 30
0.0
  0
SPLINE
  5
101
100
AcDbEntity
  8
Layer_1
 62
7
100
AcDbSpline
 70
8
 71
3
 72
8
 73
4
 74
0
 40
0
 40
0
 40
0
 40
0
 40
1
 40
1
 40
1
 40
1
 10
178.847206
 20
143.885630
 30
0.0
 10
178.205104
 20
144.256436
 30
0.0
 10
177.413936
 20
144.256436
 30
0.0
 10
176.771834
 20
143.885630
 30
0.0
  0
SPLINE
  5
102
100
AcDbEntity
  8
Layer_1
 62
7
100
AcDbSpline
 70
8
 71
3
 72
8
 73
4
 74
0
 40
0
 40
0
 40
0
 40
0
 40
1
 40
1
 40
1
 40
1
 10
176.771834
 20
143.885630
 30
0.0
 10
176.129732
 20
143.514823
 30
0.0
 10
175.734290
 20
142.829570
 30
0.0
 10
175.734520
 20
142.088090
 30
0.0
  0
SPLINE
  5
103
100
AcDbEntity
  8
Layer_1
 62
7
100
AcDbSpline
 70
8
 71
3
 72
8
 73
4
 74
0
 40
0
 40
0
 40
0
 40
0
 40
1
 40
1
 40
1
 40
1
 10
175.734520
 20
142.088090
 30
0.0
 10
175.734290
 20
141.346610
 30
0.0
 10
176.129732
 20
140.661357
 30
0.0
 10
176.771834
 20
140.290550
 30
0.0
  0
SPLINE
  5
104
100
AcDbEntity
  8
Layer_1
 62
7
100
AcDbSpline
 70
8
 71
3
 72
8
 73
4
 74
0
 40
0
 40
0
 40
0
 40
0
 40
1
 40
1
 40
1
 40
1
 10
176.771834
 20
140.290550
 30
0.0
 10
177.413936
 20
139.919744
 30
0.0
 10
178.205104
 20
139.919744
 30
0.0
 10
178.847206
 20
140.290550
 30
0.0
  0
SPLINE
  5
105
100
AcDbEntity
  8
Layer_1
 62
7
100
AcDbSpline
 70
8
 71
3
 72
8
 73
4
 74
0
 40
0
 40
0
 40
0
 40
0
 40
1
 40
1
 40
1
 40
1
 10
178.847206
 20
140.290550
 30
0.0
 10
179.489308
 20
140.661357
 30
0.0
 10
179.884750
 20
141.346610
 30
0.0
 10
179.884520
 20
142.088090
 30
0.0
  0
SPLINE
  5
106
100
AcDbEntity
  8
Layer_1
 62
7
100
AcDbSpline
 70
8
 71
3
 72
8
 73
4
 74
0
 40
0
 40
0
 40
0
 40
0
 40
1
 40
1
 40
1
 40
1
 10
29.884520
 20
192.088090
 30
0.0
 10
29.884750
 20
192.829570
 30
0.0
 10
29.489308
 20
193.514823
 30
0.0
 10
28.847206
 20
193.885630
 30
0.0
  0
SPLINE
  5
107
100
AcDbEntity
  8
Layer_1
 62
7
100
AcDbSpline
 70
8
 71
3
 72
8
 73
4
 74
0
 40
0
 40
0
 40
0
 40
0
 40
1
 40
1
 40
1
 40
1
 10
28.847206
 20
193.885630
 30
0.0
 10
28.205104
 20
194.256436
 30
0.0
 10
27.413936
 20
194.256436
 30
0.0
 10
26.771834
 20
193.885630
 30
0.0
  0
SPLINE
  5
108
100
AcDbEntity
  8
Layer_1
 62
7
100
AcDbSpline
 70
8
 71
3
 72
8
 73
4
 74
0
 40
0
 40
0
 40
0
 40
0
 40
1
 40
1
 40
1
 40
1
 10
26.771834
 20
193.885630
 30
0.0
 10
26.129732
 20
193.514823
 30
0.0
 10
25.734290
 20
192.829570
 30
0.0
 10
25.734520
 20
192.088090
 30
0.0
  0
SPLINE
  5
109
100
AcDbEntity
  8
Layer_1
 62
7
100
AcDbSpline
 70
8
 71
3
 72
8
 73
4
 74
0
 40
0
 40
0
 40
0
 40
0
 40
1
 40
1
 40
1
 40
1
 10
25.734520
 20
192.088090
 30
0.0
 10
25.734290
 20
191.346610
 30
0.0
 10
26.129732
 20
190.661357
 30
0.0
 10
26.771834
 20
190.290550
 30
0.0
  0
SPLINE
  5
10a
100
AcDbEntity
  8
Layer_1
 62
7
100
AcDbSpline
 70
8
 71
3
 72
8
 73
4
 74
0
 40
0
 40
0
 40
0
 40
0
 40
1
 40
1
 40
1
 40
1
 10
26.771834
 20
190.290550
 30
0.0
 10
27.413936
 20
189.919744
 30
0.0
 10
28.205104
 20
189.919744
 30
0.0
 10
28.847206
 20
190.290550
 30
0.0
  0
SPLINE
  5
10b
100
AcDbEntity
  8
Layer_1
 62
7
100
AcDbSpline
 70
8
 71
3
 72
8
 73
4
 74
0
 40
0
 40
0
 40
0
 40
0
 40
1
 40
1
 40
1
 40
1
 10
28.847206
 20
190.290550
 30
0.0
 10
29.489308
 20
190.661357
 30
0.0
 10
29.884750
 20
191.346610
 30
0.0
 10
29.884520
 20
192.088090
 30
0.0
  0
LWPOLYLINE
  5
10c
100
AcDbEntity
  8
Layer_1
 62
7
100
AcDbPolyline
 90
1
 70
1
 10
179.884520
 20
142.088090
 30
0.0
  0
SPLINE
  5
10d
100
AcDbEntity
  8
Layer_1
 62
7
100
AcDbSpline
 70
8
 71
3
 72
8
 73
4
 74
0
 40
0
 40
0
 40
0
 40
0
 40
1
 40
1
 40
1
 40
1
 10
29.884520
 20
142.088090
 30
0.0
 10
29.884750
 20
142.829570
 30
0.0
 10
29.489308
 20
143.514823
 30
0.0
 10
28.847206
 20
143.885630
 30
0.0
  0
SPLINE
  5
10e
100
AcDbEntity
  8
Layer_1
 62
7
100
AcDbSpline
 70
8
 71
3
 72
8
 73
4
 74
0
 40
0
 40
0
 40
0
 40
0
 40
1
 40
1
 40
1
 40
1
 10
28.847206
 20
143.885630
 30
0.0
 10
28.205104
 20
144.256436
 30
0.0
 10
27.413936
 20
144.256436
 30
0.0
 10
26.771834
 20
143.885630
 30
0.0
  0
SPLINE
  5
10f
100
AcDbEntity
  8
Layer_1
 62
7
100
AcDbSpline
 70
8
 71
3
 72
8
 73
4
 74
0
 40
0
 40
0
 40
0
 40
0
 40
1
 40
1
 40
1
 40
1
 10
26.771834
 20
143.885630
 30
0.0
 10
26.129732
 20
143.514823
 30
0.0
 10
25.734290
 20
142.829570
 30
0.0
 10
25.734520
 20
142.088090
 30
0.0
  0
SPLINE
  5
110
100
AcDbEntity
  8
Layer_1
 62
7
100
AcDbSpline
 70
8
 71
3
 72
8
 73
4
 74
0
 40
0
 40
0
 40
0
 40
0
 40
1
 40
1
 40
1
 40
1
 10
25.734520
 20
142.088090
 30
0.0
 10
25.734290
 20
141.346610
 30
0.0
 10
26.129732
 20
140.661357
 30
0.0
 10
26.771834
 20
140.290550
 30
0.0
  0
SPLINE
  5
111
100
AcDbEntity
  8
Layer_1
 62
7
100
AcDbSpline
 70
8
 71
3
 72
8
 73
4
 74
0
 40
0
 40
0
 40
0
 40
0
 40
1
 40
1
 40
1
 40
1
 10
26.771834
 20
140.290550
 30
0.0
 10
27.413936
 20
139.919744
 30
0.0
 10
28.205104
 20
139.919744
 30
0.0
 10
28.847206
 20
140.290550
 30
0.0
  0
SPLINE
  5
112
100
AcDbEntity
  8
Layer_1
 62
7
100
AcDbSpline
 70
8
 71
3
 72
8
 73
4
 74
0
 40
0
 40
0
 40
0
 40
0
 40
1
 40
1
 40
1
 40
1
 10
28.847206
 20
140.290550
 30
0.0
 10
29.489308
 20
140.661357
 30
0.0
 10
29.884750
 20
141.346610
 30
0.0
 10
29.884520
 20
142.088090
 30
0.0
  0
LWPOLYLINE
  5
113
100
AcDbEntity
  8
Layer_1
 62
7
100
AcDbPolyline
 90
1
 70
1
 10
29.884520
 20
192.088090
 30
0.0
  0
SPLINE
  5
114
100
AcDbEntity
  8
Layer_1
 62
7
100
AcDbSpline
 70
8
 71
3
 72
8
 73
4
 74
0
 40
0
 40
0
 40
0
 40
0
 40
1
 40
1
 40
1
 40
1
 10
179.884520
 20
192.088090
 30
0.0
 10
179.884750
 20
192.829570
 30
0.0
 10
179.489308
 20
193.514823
 30
0.0
 10
178.847206
 20
193.885630
 30
0.0
  0
SPLINE
  5
115
100
AcDbEntity
  8
Layer_1
 62
7
100
AcDbSpline
 70
8
 71
3
 72
8
 73
4
 74
0
 40
0
 40
0
 40
0
 40
0
 40
1
 40
1
 40
1
 40
1
 10
178.847206
 20
193.885630
 30
0.0
 10
178.205104
 20
194.256436
 30
0.0
 10
177.413936
 20
194.256436
 30
0.0
 10
176.771834
 20
193.885630
 30
0.0
  0
SPLINE
  5
116
100
AcDbEntity
  8
Layer_1
 62
7
100
AcDbSpline
 70
8
 71
3
 72
8
 73
4
 74
0
 40
0
 40
0
 40
0
 40
0
 40
1
 40
1
 40
1
 40
1
 10
176.771834
 20
193.885630
 30
0.0
 10
176.129732
 20
193.514823
 30
0.0
 10
175.734290
 20
192.829570
 30
0.0
 10
175.734520
 20
192.088090
 30
0.0
  0
SPLINE
  5
117
100
AcDbEntity
  8
Layer_1
 62
7
100
AcDbSpline
 70
8
 71
3
 72
8
 73
4
 74
0
 40
0
 40
0
 40
0
 40
0
 40
1
 40
1
 40
1
 40
1
 10
175.734520
 20
192.088090
 30
0.0
 10
175.734290
 20
191.346610
 30
0.0
 10
176.129732
 20
190.661357
 30
0.0
 10
176.771834
 20
190.290550
 30
0.0
  0
SPLINE
  5
118
100
AcDbEntity
  8
Layer_1
 62
7
100
AcDbSpline
 70
8
 71
3
 72
8
 73
4
 74
0
 40
0
 40
0
 40
0
 40
0
 40
1
 40
1
 40
1
 40
1
 10
176.771834
 20
190.290550
 30
0.0
 10
177.413936
 20
189.919744
 30
0.0
 10
178.205104
 20
189.919744
 30
0.0
 10
178.847206
 20
190.290550
 30
0.0
  0
SPLINE
  5
119
100
AcDbEntity
  8
Layer_1
 62
7
100
AcDbSpline
 70
8
 71
3
 72
8
 73
4
 74
0
 40
0
 40
0
 40
0
 40
0
 40
1
 40
1
 40
1
 40
1
 10
178.847206
 20
190.290550
 30
0.0
 10
179.489308
 20
190.661357
 30
0.0
 10
179.884750
 20
191.346610
 30
0.0
 10
179.884520
 20
192.088090
 30
0.0
  0
LWPOLYLINE
  5
11a
100
AcDbEntity
  8
Layer_1
 62
7
100
AcDbPolyline
 90
1
 70
1
 10
29.884520
 20
142.088090
 30
0.0
  0
SPLINE
  5
11b
100
AcDbEntity
  8
Layer_1
 62
7
100
AcDbSpline
 70
8
 71
3
 72
8
 73
4
 74
0
 40
0
 40
0
 40
0
 40
0
 40
1
 40
1
 40
1
 40
1
 10
225.559520
 20
111.338110
 30
0.0
 10
225.559525
 20
110.012024
 30
0.0
 10
225.032743
 20
108.740249
 30
0.0
 10
224.095061
 20
107.802563
 30
0.0
  0
SPLINE
  5
11c
100
AcDbEntity
  8
Layer_1
 62
7
100
AcDbSpline
 70
8
 71
3
 72
8
 73
4
 74
0
 40
0
 40
0
 40
0
 40
0
 40
1
 40
1
 40
1
 40
1
 10
224.095061
 20
107.802563
 30
0.0
 10
223.157379
 20
106.864877
 30
0.0
 10
221.885606
 20
106.338090
 30
0.0
 10
220.559520
 20
106.338090
 30
0.0
  0
SPLINE
  5
11d
100
AcDbEntity
  8
Layer_1
 62
7
100
AcDbSpline
 70
8
 71
3
 72
8
 73
4
 74
0
 40
0
 40
0
 40
0
 40
0
 40
1
 40
1
 40
1
 40
1
 10
220.559520
 20
106.338090
 30
0.0
 10
220.559520
 20
106.338090
 30
0.0
 10
-14.940478
 20
106.338090
 30
0.0
 10
-14.940478
 20
106.338090
 30
0.0
  0
SPLINE
  5
11e
100
AcDbEntity
  8
Layer_1
 62
7
100
AcDbSpline
 70
8
 71
3
 72
8
 73
4
 74
0
 40
0
 40
0
 40
0
 40
0
 40
1
 40
1
 40
1
 40
1
 10
-14.940478
 20
106.338090
 30
0.0
 10
-16.266564
 20
106.338090
 30
0.0
 10
-17.538337
 20
106.864877
 30
0.0
 10
-18.476020
 20
107.802563
 30
0.0
  0
SPLINE
  5
11f
100
AcDbEntity
  8
Layer_1
 62
7
100
AcDbSpline
 70
8
 71
3
 72
8
 73
4
 74
0
 40
0
 40
0
 40
0
 40
0
 40
1
 40
1
 40
1
 40
1
 10
-18.476020
 20
107.802563
 30
0.0
 10
-19.413702
 20
108.740249
 30
0.0
 10
-19.940484
 20
110.012024
 30
0.0
 10
-19.940479
 20
111.338110
 30
0.0
  0
SPLINE
  5
120
100
AcDbEntity
  8
Layer_1
 62
7
100
AcDbSpline
 70
8
 71
3
 72
8
 73
4
 74
0
 40
0
 40
0
 40
0
 40
0
 40
1
 40
1
 40
1
 40
1
 10
-19.940479
 20
111.338110
 30
0.0
 10
-19.940479
 20
111.338110
 30
0.0
 10
-19.940479
 20
220.523175
 30
0.0
 10
-19.940479
 20
220.523175
 30
0.0
  0
SPLINE
  5
121
100
AcDbEntity
  8
Layer_1
 62
7
100
AcDbSpline
 70
8
 71
3
 72
8
 73
4
 74
0
 40
0
 40
0
 40
0
 40
0
 40
1
 40
1
 40
1
 40
1
 10
-19.940479
 20
220.523175
 30
0.0
 10
-19.940479
 20
222.803167
 30
0.0
 10
-18.398071
 20
224.794407
 30
0.0
 10
-16.190479
 20
225.364405
 30
0.0
  0
SPLINE
  5
122
100
AcDbEntity
  8
Layer_1
 62
7
100
AcDbSpline
 70
8
 71
3
 72
8
 73
4
 74
0
 40
0
 40
0
 40
0
 40
0
 40
1
 40
1
 40
1
 40
1
 10
-16.190479
 20
225.364405
 30
0.0
 10
-10.906914
 20
226.728615
 30
0.0
 10
-6.781002
 20
230.854527
 30
0.0
 10
-5.416791
 20
236.138092
 30
0.0
  0
SPLINE
  5
123
100
AcDbEntity
  8
Layer_1
 62
7
100
AcDbSpline
 70
8
 71
3
 72
8
 73
4
 74
0
 40
0
 40
0
 40
0
 40
0
 40
1
 40
1
 40
1
 40
1
 10
-5.416791
 20
236.138092
 30
0.0
 10
-4.846793
 20
238.345685
 30
0.0
 10
-2.855553
 20
239.888093
 30
0.0
 10
-0.575562
 20
239.888093
 30
0.0
  0
SPLINE
  5
124
100
AcDbEntity
  8
Layer_1
 62
7
100
AcDbSpline
 70
8
 71
3
 72
8
 73
4
 74
0
 40
0
 40
0
 40
0
 40
0
 40
1
 40
1
 40
1
 40
1
 10
-0.575562
 20
239.888093
 30
0.0
 10
-0.575562
 20
239.888093
 30
0.0
 10
86.039010
 20
239.888093
 30
0.0
 10
86.039010
 20
239.888093
 30
0.0
  0
SPLINE
  5
125
100
AcDbEntity
  8
Layer_1
 62
7
100
AcDbSpline
 70
8
 71
3
 72
8
 73
4
 74
0
 40
0
 40
0
 40
0
 40
0
 40
1
 40
1
 40
1
 40
1
 10
86.039010
 20
239.888093
 30
0.0
 10
88.250205
 20
239.888093
 30
0.0
 10
90.198815
 20
238.435686
 30
0.0
 10
90.830585
 20
236.316665
 30
0.0
  0
SPLINE
  5
126
100
AcDbEntity
  8
Layer_1
 62
7
100
AcDbSpline
 70
8
 71
3
 72
8
 73
4
 74
0
 40
0
 40
0
 40
0
 40
0
 40
1
 40
1
 40
1
 40
1
 10
90.830585
 20
236.316665
 30
0.0
 10
92.410008
 20
231.019109
 30
0.0
 10
97.281532
 20
227.388087
 30
0.0
 10
102.809523
 20
227.388087
 30
0.0
  0
SPLINE
  5
127
100
AcDbEntity
  8
Layer_1
 62
7
100
AcDbSpline
 70
8
 71
3
 72
8
 73
4
 74
0
 40
0
 40
0
 40
0
 40
0
 40
1
 40
1
 40
1
 40
1
 10
102.809523
 20
227.388087
 30
0.0
 10
108.337513
 20
227.388087
 30
0.0
 10
113.209037
 20
231.019109
 30
0.0
 10
114.788460
 20
236.316665
 30
0.0
  0
SPLINE
  5
128
100
AcDbEntity
  8
Layer_1
 62
7
100
AcDbSpline
 70
8
 71
3
 72
8
 73
4
 74
0
 40
0
 40
0
 40
0
 40
0
 40
1
 40
1
 40
1
 40
1
 10
114.788460
 20
236.316665
 30
0.0
 10
115.420230
 20
238.435684
 30
0.0
 10
117.368837
 20
239.888091
 30
0.0
 10
119.580030
 20
239.888093
 30
0.0
  0
SPLINE
  5
129
100
AcDbEntity
  8
Layer_1
 62
7
100
AcDbSpline
 70
8
 71
3
 72
8
 73
4
 74
0
 40
0
 40
0
 40
0
 40
0
 40
1
 40
1
 40
1
 40
1
 10
119.580030
 20
239.888093
 30
0.0
 10
119.580030
 20
239.888093
 30
0.0
 10
206.194600
 20
239.888093
 30
0.0
 10
206.194600
 20
239.888093
 30
0.0
  0
SPLINE
  5
12a
100
AcDbEntity
  8
Layer_1
 62
7
100
AcDbSpline
 70
8
 71
3
 72
8
 73
4
 74
0
 40
0
 40
0
 40
0
 40
0
 40
1
 40
1
 40
1
 40
1
 10
206.194600
 20
239.888093
 30
0.0
 10
208.474592
 20
239.888093
 30
0.0
 10
210.465832
 20
238.345685
 30
0.0
 10
211.035830
 20
236.138092
 30
0.0
  0
SPLINE
  5
12b
100
AcDbEntity
  8
Layer_1
 62
7
100
AcDbSpline
 70
8
 71
3
 72
8
 73
4
 74
0
 40
0
 40
0
 40
0
 40
0
 40
1
 40
1
 40
1
 40
1
 10
211.035830
 20
236.138092
 30
0.0
 10
212.400041
 20
230.854526
 30
0.0
 10
216.525954
 20
226.728615
 30
0.0
 10
221.809520
 20
225.364405
 30
0.0
  0
SPLINE
  5
12c
100
AcDbEntity
  8
Layer_1
 62
7
100
AcDbSpline
 70
8
 71
3
 72
8
 73
4
 74
0
 40
0
 40
0
 40
0
 40
0
 40
1
 40
1
 40
1
 40
1
 10
221.809520
 20
225.364405
 30
0.0
 10
224.017112
 20
224.794407
 30
0.0
 10
225.559520
 20
222.803167
 30
0.0
 10
225.559520
 20
220.523175
 30
0.0
  0
LWPOLYLINE
  5
12d
100
AcDbEntity
  8
Layer_1
 62
7
100
AcDbPolyline
 90
1
 70
1
 10
179.884520
 20
192.088090
 30
0.0
  0
SPLINE
  5
12e
100
AcDbEntity
  8
Layer_1
 62
7
100
AcDbSpline
 70
8
 71
3
 72
8
 73
4
 74
0
 40
0
 40
0
 40
0
 40
0
 40
1
 40
1
 40
1
 40
1
 10
216.134520
 20
185.838090
 30
0.0
 10
216.134520
 20
186.400783
 30
0.0
 10
215.834327
 20
186.920733
 30
0.0
 10
215.347020
 20
187.202080
 30
0.0
  0
SPLINE
  5
12f
100
AcDbEntity
  8
Layer_1
 62
7
100
AcDbSpline
 70
8
 71
3
 72
8
 73
4
 74
0
 40
0
 40
0
 40
0
 40
0
 40
1
 40
1
 40
1
 40
1
 10
215.347020
 20
187.202080
 30
0.0
 10
214.859713
 20
187.483427
 30
0.0
 10
214.259327
 20
187.483427
 30
0.0
 10
213.772020
 20
187.202080
 30
0.0
  0
SPLINE
  5
130
100
AcDbEntity
  8
Layer_1
 62
7
100
AcDbSpline
 70
8
 71
3
 72
8
 73
4
 74
0
 40
0
 40
0
 40
0
 40
0
 40
1
 40
1
 40
1
 40
1
 10
213.772020
 20
187.202080
 30
0.0
 10
213.284713
 20
186.920733
 30
0.0
 10
212.984520
 20
186.400783
 30
0.0
 10
212.984520
 20
185.838090
 30
0.0
  0
SPLINE
  5
131
100
AcDbEntity
  8
Layer_1
 62
7
100
AcDbSpline
 70
8
 71
3
 72
8
 73
4
 74
0
 40
0
 40
0
 40
0
 40
0
 40
1
 40
1
 40
1
 40
1
 10
212.984520
 20
185.838090
 30
0.0
 10
212.984520
 20
185.275397
 30
0.0
 10
213.284713
 20
184.755447
 30
0.0
 10
213.772020
 20
184.474100
 30
0.0
  0
SPLINE
  5
132
100
AcDbEntity
  8
Layer_1
 62
7
100
AcDbSpline
 70
8
 71
3
 72
8
 73
4
 74
0
 40
0
 40
0
 40
0
 40
0
 40
1
 40
1
 40
1
 40
1
 10
213.772020
 20
184.474100
 30
0.0
 10
214.259327
 20
184.192753
 30
0.0
 10
214.859713
 20
184.192753
 30
0.0
 10
215.347020
 20
184.474100
 30
0.0
  0
SPLINE
  5
133
100
AcDbEntity
  8
Layer_1
 62
7
100
AcDbSpline
 70
8
 71
3
 72
8
 73
4
 74
0
 40
0
 40
0
 40
0
 40
0
 40
1
 40
1
 40
1
 40
1
 10
215.347020
 20
184.474100
 30
0.0
 10
215.834327
 20
184.755447
 30
0.0
 10
216.134520
 20
185.275397
 30
0.0
 10
216.134520
 20
185.838090
 30
0.0
  0
LWPOLYLINE
  5
134
100
AcDbEntity
  8
Layer_1
 62
7
100
AcDbPolyline
 90
2
 70
0
 10
225.559520
 20
220.523175
 30
0.0
 10
225.559520
 20
111.338110
 30
0.0
  0
SPLINE
  5
135
100
AcDbEntity
  8
Layer_1
 62
7
100
AcDbSpline
 70
8
 71
3
 72
8
 73
4
 74
0
 40
0
 40
0
 40
0
 40
0
 40
1
 40
1
 40
1
 40
1
 10
135.134520
 20
228.888094
 30
0.0
 10
135.134520
 20
229.450787
 30
0.0
 10
134.834327
 20
229.970737
 30
0.0
 10
134.347020
 20
230.252084
 30
0.0
  0
SPLINE
  5
136
100
AcDbEntity
  8
Layer_1
 62
7
100
AcDbSpline
 70
8
 71
3
 72
8
 73
4
 74
0
 40
0
 40
0
 40
0
 40
0
 40
1
 40
1
 40
1
 40
1
 10
134.347020
 20
230.252084
 30
0.0
 10
133.859713
 20
230.533431
 30
0.0
 10
133.259327
 20
230.533431
 30
0.0
 10
132.772020
 20
230.252084
 30
0.0
  0
SPLINE
  5
137
100
AcDbEntity
  8
Layer_1
 62
7
100
AcDbSpline
 70
8
 71
3
 72
8
 73
4
 74
0
 40
0
 40
0
 40
0
 40
0
 40
1
 40
1
 40
1
 40
1
 10
132.772020
 20
230.252084
 30
0.0
 10
132.284713
 20
229.970737
 30
0.0
 10
131.984520
 20
229.450787
 30
0.0
 10
131.984520
 20
228.888094
 30
0.0
  0
SPLINE
  5
138
100
AcDbEntity
  8
Layer_1
 62
7
100
AcDbSpline
 70
8
 71
3
 72
8
 73
4
 74
0
 40
0
 40
0
 40
0
 40
0
 40
1
 40
1
 40
1
 40
1
 10
131.984520
 20
228.888094
 30
0.0
 10
131.984520
 20
228.325401
 30
0.0
 10
132.284713
 20
227.805451
 30
0.0
 10
132.772020
 20
227.524104
 30
0.0
  0
SPLINE
  5
139
100
AcDbEntity
  8
Layer_1
 62
7
100
AcDbSpline
 70
8
 71
3
 72
8
 73
4
 74
0
 40
0
 40
0
 40
0
 40
0
 40
1
 40
1
 40
1
 40
1
 10
132.772020
 20
227.524104
 30
0.0
 10
133.259327
 20
227.242757
 30
0.0
 10
133.859713
 20
227.242757
 30
0.0
 10
134.347020
 20
227.524104
 30
0.0
  0
SPLINE
  5
13a
100
AcDbEntity
  8
Layer_1
 62
7
100
AcDbSpline
 70
8
 71
3
 72
8
 73
4
 74
0
 40
0
 40
0
 40
0
 40
0
 40
1
 40
1
 40
1
 40
1
 10
134.347020
 20
227.524104
 30
0.0
 10
134.834327
 20
227.805451
 30
0.0
 10
135.134520
 20
228.325401
 30
0.0
 10
135.134520
 20
228.888094
 30
0.0
  0
LWPOLYLINE
  5
13b
100
AcDbEntity
  8
Layer_1
 62
7
100
AcDbPolyline
 90
1
 70
1
 10
216.134520
 20
185.838090
 30
0.0
  0
SPLINE
  5
13c
100
AcDbEntity
  8
Layer_1
 62
7
100
AcDbSpline
 70
8
 71
3
 72
8
 73
4
 74
0
 40
0
 40
0
 40
0
 40
0
 40
1
 40
1
 40
1
 40
1
 10
23.134521
 20
228.888094
 30
0.0
 10
23.134521
 20
229.450787
 30
0.0
 10
22.834328
 20
229.970737
 30
0.0
 10
22.347021
 20
230.252084
 30
0.0
  0
SPLINE
  5
13d
100
AcDbEntity
  8
Layer_1
 62
7
100
AcDbSpline
 70
8
 71
3
 72
8
 73
4
 74
0
 40
0
 40
0
 40
0
 40
0
 40
1
 40
1
 40
1
 40
1
 10
22.347021
 20
230.252084
 30
0.0
 10
21.859714
 20
230.533431
 30
0.0
 10
21.259328
 20
230.533431
 30
0.0
 10
20.772021
 20
230.252084
 30
0.0
  0
SPLINE
  5
13e
100
AcDbEntity
  8
Layer_1
 62
7
100
AcDbSpline
 70
8
 71
3
 72
8
 73
4
 74
0
 40
0
 40
0
 40
0
 40
0
 40
1
 40
1
 40
1
 40
1
 10
20.772021
 20
230.252084
 30
0.0
 10
20.284714
 20
229.970737
 30
0.0
 10
19.984521
 20
229.450787
 30
0.0
 10
19.984521
 20
228.888094
 30
0.0
  0
SPLINE
  5
13f
100
AcDbEntity
  8
Layer_1
 62
7
100
AcDbSpline
 70
8
 71
3
 72
8
 73
4
 74
0
 40
0
 40
0
 40
0
 40
0
 40
1
 40
1
 40
1
 40
1
 10
19.984521
 20
228.888094
 30
0.0
 10
19.984521
 20
228.325401
 30
0.0
 10
20.284714
 20
227.805451
 30
0.0
 10
20.772021
 20
227.524104
 30
0.0
  0
SPLINE
  5
140
100
AcDbEntity
  8
Layer_1
 62
7
100
AcDbSpline
 70
8
 71
3
 72
8
 73
4
 74
0
 40
0
 40
0
 40
0
 40
0
 40
1
 40
1
 40
1
 40
1
 10
20.772021
 20
227.524104
 30
0.0
 10
21.259328
 20
227.242757
 30
0.0
 10
21.859714
 20
227.242757
 30
0.0
 10
22.347021
 20
227.524104
 30
0.0
  0
SPLINE
  5
141
100
AcDbEntity
  8
Layer_1
 62
7
100
AcDbSpline
 70
8
 71
3
 72
8
 73
4
 74
0
 40
0
 40
0
 40
0
 40
0
 40
1
 40
1
 40
1
 40
1
 10
22.347021
 20
227.524104
 30
0.0
 10
22.834328
 20
227.805451
 30
0.0
 10
23.134521
 20
228.325401
 30
0.0
 10
23.134521
 20
228.888094
 30
0.0
  0
LWPOLYLINE
  5
142
100
AcDbEntity
  8
Layer_1
 62
7
100
AcDbPolyline
 90
1
 70
1
 10
135.134520
 20
228.888094
 30
0.0
  0
SPLINE
  5
143
100
AcDbEntity
  8
Layer_1
 62
7
100
AcDbSpline
 70
8
 71
3
 72
8
 73
4
 74
0
 40
0
 40
0
 40
0
 40
0
 40
1
 40
1
 40
1
 40
1
 10
-7.365479
 20
143.588090
 30
0.0
 10
-7.365053
 20
144.151067
 30
0.0
 10
-7.665153
 20
144.671461
 30
0.0
 10
-8.152635
 20
144.953072
 30
0.0
  0
SPLINE
  5
144
100
AcDbEntity
  8
Layer_1
 62
7
100
AcDbSpline
 70
8
 71
3
 72
8
 73
4
 74
0
 40
0
 40
0
 40
0
 40
0
 40
1
 40
1
 40
1
 40
1
 10
-8.152635
 20
144.953072
 30
0.0
 10
-8.640116
 20
145.234683
 30
0.0
 10
-9.240841
 20
145.234683
 30
0.0
 10
-9.728322
 20
144.953072
 30
0.0
  0
SPLINE
  5
145
100
AcDbEntity
  8
Layer_1
 62
7
100
AcDbSpline
 70
8
 71
3
 72
8
 73
4
 74
0
 40
0
 40
0
 40
0
 40
0
 40
1
 40
1
 40
1
 40
1
 10
-9.728322
 20
144.953072
 30
0.0
 10
-10.215803
 20
144.671461
 30
0.0
 10
-10.515904
 20
144.151067
 30
0.0
 10
-10.515478
 20
143.588090
 30
0.0
  0
SPLINE
  5
146
100
AcDbEntity
  8
Layer_1
 62
7
100
AcDbSpline
 70
8
 71
3
 72
8
 73
4
 74
0
 40
0
 40
0
 40
0
 40
0
 40
1
 40
1
 40
1
 40
1
 10
-10.515478
 20
143.588090
 30
0.0
 10
-10.515904
 20
143.025113
 30
0.0
 10
-10.215803
 20
142.504719
 30
0.0
 10
-9.728322
 20
142.223108
 30
0.0
  0
SPLINE
  5
147
100
AcDbEntity
  8
Layer_1
 62
7
100
AcDbSpline
 70
8
 71
3
 72
8
 73
4
 74
0
 40
0
 40
0
 40
0
 40
0
 40
1
 40
1
 40
1
 40
1
 10
-9.728322
 20
142.223108
 30
0.0
 10
-9.240841
 20
141.941497
 30
0.0
 10
-8.640116
 20
141.941497
 30
0.0
 10
-8.152635
 20
142.223108
 30
0.0
  0
SPLINE
  5
148
100
AcDbEntity
  8
Layer_1
 62
7
100
AcDbSpline
 70
8
 71
3
 72
8
 73
4
 74
0
 40
0
 40
0
 40
0
 40
0
 40
1
 40
1
 40
1
 40
1
 10
-8.152635
 20
142.223108
 30
0.0
 10
-7.665153
 20
142.504719
 30
0.0
 10
-7.365053
 20
143.025113
 30
0.0
 10
-7.365479
 20
143.588090
 30
0.0
  0
LWPOLYLINE
  5
149
100
AcDbEntity
  8
Layer_1
 62
7
100
AcDbPolyline
 90
1
 70
1
 10
23.134521
 20
228.888094
 30
0.0
  0
SPLINE
  5
14a
100
AcDbEntity
  8
Layer_1
 62
7
100
AcDbSpline
 70
8
 71
3
 72
8
 73
4
 74
0
 40
0
 40
0
 40
0
 40
0
 40
1
 40
1
 40
1
 40
1
 10
-7.365479
 20
185.838090
 30
0.0
 10
-7.365053
 20
186.401067
 30
0.0
 10
-7.665153
 20
186.921461
 30
0.0
 10
-8.152635
 20
187.203072
 30
0.0
  0
SPLINE
  5
14b
100
AcDbEntity
  8
Layer_1
 62
7
100
AcDbSpline
 70
8
 71
3
 72
8
 73
4
 74
0
 40
0
 40
0
 40
0
 40
0
 40
1
 40
1
 40
1
 40
1
 10
-8.152635
 20
187.203072
 30
0.0
 10
-8.640116
 20
187.484683
 30
0.0
 10
-9.240841
 20
187.484683
 30
0.0
 10
-9.728322
 20
187.203072
 30
0.0
  0
SPLINE
  5
14c
100
AcDbEntity
  8
Layer_1
 62
7
100
AcDbSpline
 70
8
 71
3
 72
8
 73
4
 74
0
 40
0
 40
0
 40
0
 40
0
 40
1
 40
1
 40
1
 40
1
 10
-9.728322
 20
187.203072
 30
0.0
 10
-10.215803
 20
186.921461
 30
0.0
 10
-10.515904
 20
186.401067
 30
0.0
 10
-10.515478
 20
185.838090
 30
0.0
  0
SPLINE
  5
14d
100
AcDbEntity
  8
Layer_1
 62
7
100
AcDbSpline
 70
8
 71
3
 72
8
 73
4
 74
0
 40
0
 40
0
 40
0
 40
0
 40
1
 40
1
 40
1
 40
1
 10
-10.515478
 20
185.838090
 30
0.0
 10
-10.515904
 20
185.275113
 30
0.0
 10
-10.215803
 20
184.754719
 30
0.0
 10
-9.728322
 20
184.473108
 30
0.0
  0
SPLINE
  5
14e
100
AcDbEntity
  8
Layer_1
 62
7
100
AcDbSpline
 70
8
 71
3
 72
8
 73
4
 74
0
 40
0
 40
0
 40
0
 40
0
 40
1
 40
1
 40
1
 40
1
 10
-9.728322
 20
184.473108
 30
0.0
 10
-9.240841
 20
184.191497
 30
0.0
 10
-8.640116
 20
184.191497
 30
0.0
 10
-8.152635
 20
184.473108
 30
0.0
  0
SPLINE
  5
14f
100
AcDbEntity
  8
Layer_1
 62
7
100
AcDbSpline
 70
8
 71
3
 72
8
 73
4
 74
0
 40
0
 40
0
 40
0
 40
0
 40
1
 40
1
 40
1
 40
1
 10
-8.152635
 20
184.473108
 30
0.0
 10
-7.665153
 20
184.754719
 30
0.0
 10
-7.365053
 20
185.275113
 30
0.0
 10
-7.365479
 20
185.838090
 30
0.0
  0
LWPOLYLINE
  5
150
100
AcDbEntity
  8
Layer_1
 62
7
100
AcDbPolyline
 90
1
 70
1
 10
-7.365479
 20
143.588090
 30
0.0
  0
SPLINE
  5
151
100
AcDbEntity
  8
Layer_1
 62
7
100
AcDbSpline
 70
8
 71
3
 72
8
 73
4
 74
0
 40
0
 40
0
 40
0
 40
0
 40
1
 40
1
 40
1
 40
1
 10
73.634519
 20
228.888094
 30
0.0
 10
73.634968
 20
229.451086
 30
0.0
 10
73.334873
 20
229.971504
 30
0.0
 10
72.847382
 20
230.253130
 30
0.0
  0
SPLINE
  5
152
100
AcDbEntity
  8
Layer_1
 62
7
100
AcDbSpline
 70
8
 71
3
 72
8
 73
4
 74
0
 40
0
 40
0
 40
0
 40
0
 40
1
 40
1
 40
1
 40
1
 10
72.847382
 20
230.253130
 30
0.0
 10
72.359891
 20
230.534755
 30
0.0
 10
71.759148
 20
230.534755
 30
0.0
 10
71.271657
 20
230.253130
 30
0.0
  0
SPLINE
  5
153
100
AcDbEntity
  8
Layer_1
 62
7
100
AcDbSpline
 70
8
 71
3
 72
8
 73
4
 74
0
 40
0
 40
0
 40
0
 40
0
 40
1
 40
1
 40
1
 40
1
 10
71.271657
 20
230.253130
 30
0.0
 10
70.784166
 20
229.971504
 30
0.0
 10
70.484071
 20
229.451086
 30
0.0
 10
70.484520
 20
228.888094
 30
0.0
  0
SPLINE
  5
154
100
AcDbEntity
  8
Layer_1
 62
7
100
AcDbSpline
 70
8
 71
3
 72
8
 73
4
 74
0
 40
0
 40
0
 40
0
 40
0
 40
1
 40
1
 40
1
 40
1
 10
70.484520
 20
228.888094
 30
0.0
 10
70.484071
 20
228.325102
 30
0.0
 10
70.784166
 20
227.804684
 30
0.0
 10
71.271657
 20
227.523058
 30
0.0
  0
SPLINE
  5
155
100
AcDbEntity
  8
Layer_1
 62
7
100
AcDbSpline
 70
8
 71
3
 72
8
 73
4
 74
0
 40
0
 40
0
 40
0
 40
0
 40
1
 40
1
 40
1
 40
1
 10
71.271657
 20
227.523058
 30
0.0
 10
71.759148
 20
227.241433
 30
0.0
 10
72.359891
 20
227.241433
 30
0.0
 10
72.847382
 20
227.523058
 30
0.0
  0
SPLINE
  5
156
100
AcDbEntity
  8
Layer_1
 62
7
100
AcDbSpline
 70
8
 71
3
 72
8
 73
4
 74
0
 40
0
 40
0
 40
0
 40
0
 40
1
 40
1
 40
1
 40
1
 10
72.847382
 20
227.523058
 30
0.0
 10
73.334873
 20
227.804684
 30
0.0
 10
73.634968
 20
228.325102
 30
0.0
 10
73.634519
 20
228.888094
 30
0.0
  0
LWPOLYLINE
  5
157
100
AcDbEntity
  8
Layer_1
 62
7
100
AcDbPolyline
 90
1
 70
1
 10
-7.365479
 20
185.838090
 30
0.0
  0
SPLINE
  5
158
100
AcDbEntity
  8
Layer_1
 62
7
100
AcDbSpline
 70
8
 71
3
 72
8
 73
4
 74
0
 40
0
 40
0
 40
0
 40
0
 40
1
 40
1
 40
1
 40
1
 10
185.634520
 20
228.888094
 30
0.0
 10
185.634520
 20
229.450787
 30
0.0
 10
185.334327
 20
229.970737
 30
0.0
 10
184.847020
 20
230.252084
 30
0.0
  0
SPLINE
  5
159
100
AcDbEntity
  8
Layer_1
 62
7
100
AcDbSpline
 70
8
 71
3
 72
8
 73
4
 74
0
 40
0
 40
0
 40
0
 40
0
 40
1
 40
1
 40
1
 40
1
 10
184.847020
 20
230.252084
 30
0.0
 10
184.359713
 20
230.533431
 30
0.0
 10
183.759327
 20
230.533431
 30
0.0
 10
183.272020
 20
230.252084
 30
0.0
  0
SPLINE
  5
15a
100
AcDbEntity
  8
Layer_1
 62
7
100
AcDbSpline
 70
8
 71
3
 72
8
 73
4
 74
0
 40
0
 40
0
 40
0
 40
0
 40
1
 40
1
 40
1
 40
1
 10
183.272020
 20
230.252084
 30
0.0
 10
182.784713
 20
229.970737
 30
0.0
 10
182.484520
 20
229.450787
 30
0.0
 10
182.484520
 20
228.888094
 30
0.0
  0
SPLINE
  5
15b
100
AcDbEntity
  8
Layer_1
 62
7
100
AcDbSpline
 70
8
 71
3
 72
8
 73
4
 74
0
 40
0
 40
0
 40
0
 40
0
 40
1
 40
1
 40
1
 40
1
 10
182.484520
 20
228.888094
 30
0.0
 10
182.484520
 20
228.325401
 30
0.0
 10
182.784713
 20
227.805451
 30
0.0
 10
183.272020
 20
227.524104
 30
0.0
  0
SPLINE
  5
15c
100
AcDbEntity
  8
Layer_1
 62
7
100
AcDbSpline
 70
8
 71
3
 72
8
 73
4
 74
0
 40
0
 40
0
 40
0
 40
0
 40
1
 40
1
 40
1
 40
1
 10
183.272020
 20
227.524104
 30
0.0
 10
183.759327
 20
227.242757
 30
0.0
 10
184.359713
 20
227.242757
 30
0.0
 10
184.847020
 20
227.524104
 30
0.0
  0
SPLINE
  5
15d
100
AcDbEntity
  8
Layer_1
 62
7
100
AcDbSpline
 70
8
 71
3
 72
8
 73
4
 74
0
 40
0
 40
0
 40
0
 40
0
 40
1
 40
1
 40
1
 40
1
 10
184.847020
 20
227.524104
 30
0.0
 10
185.334327
 20
227.805451
 30
0.0
 10
185.634520
 20
228.325401
 30
0.0
 10
185.634520
 20
228.888094
 30
0.0
  0
LWPOLYLINE
  5
15e
100
AcDbEntity
  8
Layer_1
 62
7
100
AcDbPolyline
 90
1
 70
1
 10
73.634519
 20
228.888094
 30
0.0
  0
SPLINE
  5
15f
100
AcDbEntity
  8
Layer_1
 62
7
100
AcDbSpline
 70
8
 71
3
 72
8
 73
4
 74
0
 40
0
 40
0
 40
0
 40
0
 40
1
 40
1
 40
1
 40
1
 10
216.134520
 20
143.588090
 30
0.0
 10
216.134520
 20
144.150783
 30
0.0
 10
215.834327
 20
144.670733
 30
0.0
 10
215.347020
 20
144.952080
 30
0.0
  0
SPLINE
  5
160
100
AcDbEntity
  8
Layer_1
 62
7
100
AcDbSpline
 70
8
 71
3
 72
8
 73
4
 74
0
 40
0
 40
0
 40
0
 40
0
 40
1
 40
1
 40
1
 40
1
 10
215.347020
 20
144.952080
 30
0.0
 10
214.859713
 20
145.233427
 30
0.0
 10
214.259327
 20
145.233427
 30
0.0
 10
213.772020
 20
144.952080
 30
0.0
  0
SPLINE
  5
161
100
AcDbEntity
  8
Layer_1
 62
7
100
AcDbSpline
 70
8
 71
3
 72
8
 73
4
 74
0
 40
0
 40
0
 40
0
 40
0
 40
1
 40
1
 40
1
 40
1
 10
213.772020
 20
144.952080
 30
0.0
 10
213.284713
 20
144.670733
 30
0.0
 10
212.984520
 20
144.150783
 30
0.0
 10
212.984520
 20
143.588090
 30
0.0
  0
SPLINE
  5
162
100
AcDbEntity
  8
Layer_1
 62
7
100
AcDbSpline
 70
8
 71
3
 72
8
 73
4
 74
0
 40
0
 40
0
 40
0
 40
0
 40
1
 40
1
 40
1
 40
1
 10
212.984520
 20
143.588090
 30
0.0
 10
212.984520
 20
143.025397
 30
0.0
 10
213.284713
 20
142.505447
 30
0.0
 10
213.772020
 20
142.224100
 30
0.0
  0
SPLINE
  5
163
100
AcDbEntity
  8
Layer_1
 62
7
100
AcDbSpline
 70
8
 71
3
 72
8
 73
4
 74
0
 40
0
 40
0
 40
0
 40
0
 40
1
 40
1
 40
1
 40
1
 10
213.772020
 20
142.224100
 30
0.0
 10
214.259327
 20
141.942753
 30
0.0
 10
214.859713
 20
141.942753
 30
0.0
 10
215.347020
 20
142.224100
 30
0.0
  0
SPLINE
  5
164
100
AcDbEntity
  8
Layer_1
 62
7
100
AcDbSpline
 70
8
 71
3
 72
8
 73
4
 74
0
 40
0
 40
0
 40
0
 40
0
 40
1
 40
1
 40
1
 40
1
 10
215.347020
 20
142.224100
 30
0.0
 10
215.834327
 20
142.505447
 30
0.0
 10
216.134520
 20
143.025397
 30
0.0
 10
216.134520
 20
143.588090
 30
0.0
  0
LWPOLYLINE
  5
165
100
AcDbEntity
  8
Layer_1
 62
7
100
AcDbPolyline
 90
1
 70
1
 10
185.634520
 20
228.888094
 30
0.0
  0
LWPOLYLINE
  5
166
100
AcDbEntity
  8
Layer_1
 62
7
100
AcDbPolyline
 90
1
 70
1
 10
216.134520
 20
143.588090
 30
0.0
  0
ENDSEC
  0
SECTION
  2
OBJECTS
  0
DICTIONARY
  5
C
330
0
100
AcDbDictionary
  3
ACAD_GROUP
350
D
  3
ACAD_MLINESTYLE
350
17
  0
DICTIONARY
  5
D
330
C
100
AcDbDictionary
  0
DICTIONARY
  5
1A
330
C
100
AcDbDictionary
  0
DICTIONARY
  5
17
330
C
100
AcDbDictionary
  3
STANDARD
350
18
  0
DICTIONARY
  5
19
330
C
100
AcDbDictionary
  0
ENDSEC
  0
EOF
