# Blender v2.80 (sub 75) OBJ File: ''
# www.blender.org
mtllib 1_Anchor.mtl
o Sixi_Retopology_1_Anchor
v 5.754963 -2.388986 10.925339
v 5.754963 2.391868 10.925339
v 5.344621 2.224494 11.325000
v 5.344621 -2.221612 11.325000
v 2.227068 -5.366675 11.314393
v 2.383254 -5.753176 10.930382
v -2.324558 -5.359918 11.323640
v -2.397631 -5.752122 10.927966
v -7.176935 -4.238265 10.823909
v -7.055269 -4.548559 10.506975
v -6.632980 -4.548559 10.922927
v -6.689253 -4.123953 11.318246
v -12.409031 -4.246582 10.816529
v -12.112842 -4.548559 10.502934
v -13.175850 -4.542558 10.926376
v -12.529146 -4.547278 10.926280
v -12.915667 -4.153695 11.319862
v -13.132577 -4.144875 11.320694
v -13.892854 -3.927901 11.321028
v -14.668944 -3.913167 11.319178
v -14.659781 -4.318423 10.902932
v -13.977354 -4.318423 10.920639
v 5.770157 2.381670 2.000000
v 5.770157 -2.378784 2.000000
v 2.382520 -5.758556 2.000195
v -2.394874 -5.755991 2.002911
v -6.624452 -4.550851 2.008832
v 2.227068 5.369557 11.314395
v -2.324558 5.362800 11.323642
v -6.689253 4.126837 11.318248
v -13.074499 -4.548557 2.001515
v -12.408394 -3.124196 10.824998
v -7.185709 -3.131354 10.824999
v -6.927602 -2.870685 11.079897
v -6.927602 2.873567 11.079897
v -12.663498 -2.879424 11.070997
v -12.663498 2.879918 11.070997
v -12.915667 4.156579 11.319864
v -13.979983 -4.318421 2.002190
v -14.674020 -4.316862 2.010722
v -16.967632 -3.772441 1.999998
v -16.959084 -3.766579 10.109630
v -16.775034 -3.392869 10.591943
v -16.775034 3.395751 10.591945
v -16.959084 3.769461 10.109632
v -14.668944 3.916049 11.319180
v -13.132577 4.147757 11.320696
v -13.892854 3.930783 11.321030
v -16.967632 3.775327 2.000000
v 2.383254 5.756058 10.930384
v -2.397631 5.755006 10.927968
v -7.176935 4.241149 10.823911
v -6.632980 4.551443 10.922929
v -7.055269 4.551443 10.506977
v -12.112842 4.551443 10.502935
v -12.409031 4.249466 10.816531
v -13.175850 4.545440 10.926378
v -12.529146 4.550160 10.926282
v -13.977354 4.321305 10.920641
v -14.659781 4.321305 10.902934
v 2.382520 5.761444 2.000197
v -2.394874 5.758879 2.002913
v -6.624452 4.553737 2.008834
v -13.074499 4.551445 2.001517
v -12.408394 3.127078 10.825000
v -7.185709 3.134236 10.825001
v -13.979983 4.321307 2.002192
v -14.674020 4.319748 2.010724
v -12.172221 -2.869871 10.579720
v -7.418978 -2.866513 10.588522
v -7.438607 2.873567 10.577515
v -6.927602 -2.870685 11.079897
v -12.172221 2.887083 10.579720
v -7.418978 -2.866512 5.363741
v -12.172221 -2.869870 5.354939
v -12.172221 2.887084 5.354940
v -7.438607 2.873568 5.352736
v -18.067106 -4.284699 0.199603
v -13.312675 -5.643976 0.195417
v -13.309681 -5.648559 1.594448
v -18.067501 -4.290085 1.595412
v -6.793166 -5.648558 0.200621
v -6.787540 -5.642802 1.605754
v -2.538403 -6.850374 0.191823
v -2.542244 -6.857782 1.597651
v 2.843734 -6.856326 0.202152
v 2.834188 -6.858558 1.596739
v 6.853850 -2.831291 0.193850
v 6.847603 -2.852460 1.598279
v 6.853039 2.849909 0.206424
v 6.854943 2.833964 1.605057
v 2.849329 6.853619 0.215210
v 2.853965 6.848985 1.589318
v -2.546026 6.859591 0.201404
v -2.537560 6.860000 1.601444
v -6.780642 5.653014 0.204507
v -6.782300 5.652543 1.595979
v -13.297550 5.631289 0.179846
v -13.315612 5.650832 1.597055
v -18.065763 4.287906 0.198264
v -18.058104 4.299543 1.595227
v -13.248233 5.254598 1.996846
v -17.666344 3.999560 1.995853
v -17.653574 -3.983964 1.999998
v -13.263312 -5.250834 1.996241
v -6.728734 -5.248998 1.999999
v -2.480724 -6.455980 1.999999
v 2.684614 -6.464096 1.994462
v -6.737017 5.264196 1.987247
v -2.481353 6.471589 1.989855
v 6.463070 2.683830 1.996930
v 6.462249 -2.668905 1.997751
v 2.713570 6.474516 1.986928
v -17.653656 -4.070381 0.001972
v -12.927373 -5.361697 -0.002005
v -6.733840 -5.366048 0.002939
v -2.691814 -6.507775 -0.005419
v 2.421216 -6.513429 0.004394
v 6.383815 -2.689644 -0.003493
v 6.383044 2.707495 0.008452
v 2.426531 6.511021 0.016799
v -2.699056 6.516694 0.003683
v -6.721941 5.370445 0.006631
v -12.913004 5.349806 -0.016797
v -17.652378 4.073592 0.000700
v -11.666180 2.310579 11.977911
v -11.450385 2.809158 11.977911
v -11.450385 2.809159 6.343460
v -11.666180 2.310580 6.343460
v -11.666465 -2.326049 6.343459
v -11.450385 -2.825292 6.343459
v -11.450385 -2.825293 11.977911
v -11.666465 -2.326050 11.977911
v -7.489244 1.848755 11.977911
v -6.993304 1.637627 11.977911
v -6.993304 1.637628 6.343460
v -7.489244 1.848756 6.343460
v -12.627754 1.637628 6.343460
v -12.627754 1.637627 11.977911
v -12.130010 1.849523 11.977911
v -12.130010 1.849524 6.343460
v -12.627754 -1.643639 6.343459
v -12.627754 -1.643640 11.977911
v -6.993304 -1.643640 11.977911
v -6.993304 -1.643639 6.343459
v -12.127896 -1.862592 11.977911
v -12.127896 -1.862591 6.343459
v -7.491395 -1.861819 11.977911
v -7.491395 -1.861818 6.343459
v -8.144360 -2.825293 11.977911
v -8.144360 -2.825292 6.343459
v -7.946460 -2.331527 6.343459
v -7.946460 -2.331528 11.977911
v -8.144360 2.809158 11.977911
v -7.946743 2.316095 11.977911
v -7.946743 2.316096 6.343460
v -8.144360 2.809159 6.343460
vt 0.713183 0.671936
vt 0.713183 0.570408
vt 0.721670 0.573963
vt 0.721670 0.668382
vt 0.781293 0.445118
vt 0.773762 0.442075
vt 0.839310 0.376381
vt 0.842571 0.384376
vt 0.781425 0.533802
vt 0.773783 0.535225
vt 0.803279 0.628345
vt 0.797233 0.625975
vt 0.797233 0.617747
vt 0.805506 0.618843
vt 0.803117 0.730287
vt 0.797233 0.724516
vt 0.504738 0.498944
vt 0.517505 0.498850
vt 0.509874 0.506620
vt 0.505593 0.506794
vt 0.490584 0.511077
vt 0.475263 0.511368
vt 0.475444 0.503368
vt 0.488916 0.503368
vt 0.523640 0.570625
vt 0.523640 0.671720
vt 0.523644 0.743494
vt 0.713290 0.743380
vt 0.639550 0.093359
vt 0.639498 0.001885
vt 0.810488 0.001871
vt 0.810442 0.093412
vt 0.810345 0.174508
vt 0.639664 0.174345
vt 0.929199 0.384376
vt 0.990477 0.445118
vt 0.990346 0.533802
vt 0.966264 0.618843
vt 0.802381 0.182594
vt 0.802303 0.279433
vt 0.639524 0.297846
vt 0.824985 0.730275
vt 0.824846 0.628516
vt 0.423918 0.670020
vt 0.416179 0.677759
vt 0.407855 0.677784
vt 0.414021 0.671847
vt 0.810409 0.287404
vt 0.810411 0.299787
vt 0.248876 0.511690
vt 0.258580 0.513934
vt 0.253901 0.538536
vt 0.248898 0.533419
vt 0.258580 0.675900
vt 0.253901 0.651298
vt 0.414188 0.649777
vt 0.419025 0.644964
vt 0.419025 0.531718
vt 0.423918 0.506615
vt 0.810301 0.315133
vt 0.639537 0.315184
vt 0.639700 0.328473
vt 0.809962 0.328200
vt 0.639494 0.372389
vt 0.794773 0.372226
vt 0.433687 0.521640
vt 0.430054 0.514262
vt 0.138572 0.845843
vt 0.009224 0.845843
vt 0.002104 0.836654
vt 0.145693 0.836654
vt 0.475263 0.665924
vt 0.433687 0.655653
vt 0.505593 0.670499
vt 0.490584 0.666215
vt 0.509874 0.670673
vt 0.001992 0.682135
vt 0.145805 0.682135
vt 0.932460 0.376381
vt 0.998008 0.442075
vt 0.997987 0.535225
vt 0.968491 0.628345
vt 0.974537 0.617747
vt 0.974537 0.625975
vt 0.974537 0.724516
vt 0.968654 0.730287
vt 0.504738 0.678349
vt 0.517505 0.678442
vt 0.488916 0.673925
vt 0.475444 0.673925
vt 0.523644 0.498850
vt 0.713290 0.498965
vt 0.987787 0.093359
vt 0.816895 0.093412
vt 0.816849 0.001871
vt 0.987839 0.001885
vt 0.816992 0.174508
vt 0.987673 0.174344
vt 0.824956 0.182593
vt 0.987813 0.297846
vt 0.825033 0.279433
vt 0.946785 0.730275
vt 0.946924 0.628516
vt 0.414021 0.504788
vt 0.407855 0.498850
vt 0.416179 0.498876
vt 0.816926 0.299786
vt 0.816928 0.287404
vt 0.248876 0.678144
vt 0.248898 0.656415
vt 0.414188 0.526858
vt 0.987801 0.315183
vt 0.817036 0.315133
vt 0.987637 0.328472
vt 0.817375 0.328200
vt 0.987842 0.372389
vt 0.832564 0.372225
vt 0.430054 0.663031
vt 0.829940 0.725673
vt 0.830006 0.633061
vt 0.244039 0.651298
vt 0.253901 0.538536
vt 0.244255 0.538618
vt 0.942109 0.725673
vt 0.941846 0.633444
vt 0.915041 0.734278
vt 0.915041 0.833643
vt 0.824645 0.833810
vt 0.824645 0.734446
vt 0.409365 0.644776
vt 0.306630 0.644776
vt 0.306630 0.531577
vt 0.409365 0.531577
vt 0.141475 0.651298
vt 0.141691 0.538618
vt 0.907985 0.937208
vt 0.907985 0.837844
vt 0.998008 0.837802
vt 0.998008 0.937166
vt 0.421957 0.681840
vt 0.421583 0.791004
vt 0.331560 0.791261
vt 0.331560 0.681776
vt 0.604562 0.402949
vt 0.604482 0.311757
vt 0.631316 0.311700
vt 0.631335 0.402957
vt 0.604582 0.186710
vt 0.631533 0.186602
vt 0.604413 0.105102
vt 0.631377 0.105176
vt 0.604611 0.001871
vt 0.631360 0.002054
vt 0.758775 0.679080
vt 0.727989 0.679031
vt 0.727805 0.590178
vt 0.758809 0.590645
vt 0.728083 0.464764
vt 0.758958 0.465116
vt 0.728277 0.376381
vt 0.758611 0.376483
vt 0.596184 0.105440
vt 0.569332 0.105277
vt 0.569565 0.001871
vt 0.595919 0.001960
vt 0.596125 0.186658
vt 0.569437 0.186689
vt 0.596597 0.311648
vt 0.569416 0.311995
vt 0.596244 0.403100
vt 0.569451 0.402954
vt 0.264742 0.511797
vt 0.292460 0.511690
vt 0.292456 0.682262
vt 0.264716 0.682031
vt 0.530171 0.398007
vt 0.538134 0.399361
vt 0.510977 0.494670
vt 0.504948 0.486797
vt 0.300412 0.676305
vt 0.300494 0.517769
vt 0.344504 0.486540
vt 0.338352 0.494859
vt 0.311051 0.399242
vt 0.319044 0.398310
vt 0.500442 0.472755
vt 0.348755 0.472755
vt 0.511383 0.426661
vt 0.311167 0.268167
vt 0.319081 0.266985
vt 0.333158 0.394515
vt 0.333112 0.264889
vt 0.286750 0.182850
vt 0.294824 0.181613
vt 0.308892 0.179888
vt 0.294661 0.077806
vt 0.308841 0.083877
vt 0.286734 0.074800
vt 0.530364 0.267151
vt 0.538168 0.268061
vt 0.516086 0.264889
vt 0.516039 0.394515
vt 0.554628 0.181626
vt 0.562434 0.182755
vt 0.511414 0.412713
vt 0.337814 0.426661
vt 0.337783 0.412713
vt 0.767609 0.468430
vt 0.767627 0.586593
vt 0.478506 0.001871
vt 0.472434 0.015796
vt 0.376763 0.015796
vt 0.370933 0.001887
vt 0.767554 0.670373
vt 0.540305 0.179888
vt 0.767388 0.384750
vt 0.554687 0.077224
vt 0.540357 0.083877
vt 0.562213 0.074402
vt 0.162847 0.801824
vt 0.152256 0.801824
vt 0.152256 0.682135
vt 0.162847 0.682135
vt 0.189374 0.682135
vt 0.199965 0.682135
vt 0.199965 0.801669
vt 0.189374 0.801669
vt 0.296479 0.686254
vt 0.306311 0.686254
vt 0.306311 0.797963
vt 0.296479 0.797963
vt 0.314019 0.793484
vt 0.314019 0.681776
vt 0.323887 0.681776
vt 0.323887 0.793484
vt 0.746723 0.747486
vt 0.746723 0.854641
vt 0.684320 0.854641
vt 0.684320 0.747486
vt 0.491410 0.789590
vt 0.429007 0.789590
vt 0.429007 0.682434
vt 0.491410 0.682434
vt 0.271330 0.798213
vt 0.261398 0.798213
vt 0.261398 0.686254
vt 0.271330 0.686254
vt 0.288836 0.798213
vt 0.278938 0.798213
vt 0.278938 0.686254
vt 0.288836 0.686254
vt 0.234112 0.801019
vt 0.234112 0.682135
vt 0.244530 0.682135
vt 0.244530 0.801019
vt 0.227117 0.801171
vt 0.216700 0.801171
vt 0.216700 0.682135
vt 0.227117 0.682135
vt 0.499170 0.854641
vt 0.499170 0.747486
vt 0.562043 0.747486
vt 0.562043 0.854641
vt 0.754482 0.734278
vt 0.817356 0.734278
vt 0.817356 0.841434
vt 0.754482 0.841434
vt 0.172641 0.682135
vt 0.172641 0.801824
vt 0.206827 0.801171
vt 0.206827 0.682135
vt 0.179542 0.801669
vt 0.179542 0.682135
vt 0.254441 0.682135
vt 0.254441 0.801019
vt 0.228191 0.507698
vt 0.223841 0.499306
vt 0.250051 0.403376
vt 0.255780 0.411196
vt 0.250139 0.277664
vt 0.255873 0.278868
vt 0.273313 0.195622
vt 0.280267 0.192508
vt 0.273428 0.091841
vt 0.280388 0.083265
vt 0.195816 0.011411
vt 0.198691 0.001871
vt 0.086268 0.011427
vt 0.083378 0.001887
vt 0.009067 0.091733
vt 0.002113 0.083152
vt 0.008952 0.195769
vt 0.001992 0.192663
vt 0.032218 0.277422
vt 0.026482 0.278614
vt 0.032637 0.403084
vt 0.026923 0.410889
vt 0.058540 0.499280
vt 0.054190 0.507671
vt 0.578722 0.765612
vt 0.587655 0.756958
vt 0.658223 0.756917
vt 0.667110 0.765618
vt 0.667006 0.836354
vt 0.658237 0.845175
vt 0.587641 0.845135
vt 0.578827 0.836359
vt 0.569332 0.832250
vt 0.569332 0.769376
vt 0.676488 0.769376
vt 0.676488 0.832250
vt 0.591805 0.747485
vt 0.654208 0.747485
vt 0.654208 0.854641
vt 0.591805 0.854641
vn 0.6977 0.0000 0.7164
vn 0.4977 -0.4968 0.7109
vn -0.0001 -0.7076 0.7067
vn -0.4836 -0.6667 0.5671
vn -0.1939 -0.6804 0.7067
vn -0.0002 -0.7175 0.6966
vn -0.0103 -0.7078 0.7063
vn -0.0166 -0.7153 0.6986
vn -0.1947 -0.6806 0.7063
vn 1.0000 -0.0000 0.0017
vn 0.7063 -0.7079 0.0004
vn -0.0004 -1.0000 0.0005
vn -0.2737 -0.9618 0.0002
vn -0.0034 -0.0000 1.0000
vn 0.0020 -0.0000 1.0000
vn -0.0012 -0.0000 1.0000
vn -0.0002 -1.0000 0.0001
vn -0.0007 -0.0043 1.0000
vn 0.7071 -0.0245 0.7067
vn -0.0003 -1.0000 0.0003
vn -0.0055 -1.0000 0.0005
vn -0.7079 -0.0031 0.7063
vn -0.7071 -0.0000 0.7071
vn 0.7007 -0.0024 0.7134
vn 0.7024 -0.0000 0.7118
vn -0.2572 -0.9664 -0.0011
vn -0.0011 -1.0000 -0.0001
vn -0.2323 -0.9727 0.0006
vn -0.3836 -0.6595 0.6464
vn -0.9343 0.0000 0.3565
vn -0.3264 -0.0000 0.9452
vn 0.0004 -0.0000 1.0000
vn -0.0024 -0.0000 1.0000
vn 0.0038 -0.0000 1.0000
vn -1.0000 0.0000 0.0011
vn 0.4977 0.4968 0.7109
vn -0.0001 0.7076 0.7067
vn -0.4836 0.6667 0.5671
vn -0.1939 0.6804 0.7067
vn -0.0002 0.7175 0.6966
vn -0.0103 0.7078 0.7063
vn -0.0166 0.7153 0.6986
vn -0.1947 0.6806 0.7063
vn 0.7063 0.7079 0.0004
vn -0.0004 1.0000 0.0005
vn -0.2737 0.9618 0.0002
vn -0.0002 1.0000 0.0001
vn -0.0007 0.0043 1.0000
vn 0.7071 0.0245 0.7067
vn -0.0003 1.0000 0.0003
vn -0.0055 1.0000 0.0005
vn -0.7079 0.0031 0.7063
vn 0.7007 0.0024 0.7134
vn -0.2572 0.9664 -0.0011
vn -0.0011 1.0000 -0.0001
vn -0.2323 0.9727 0.0006
vn -0.3836 0.6595 0.6464
vn -0.0004 0.6802 0.7330
vn -0.7011 0.0031 0.7131
vn -0.7070 0.0086 0.7071
vn -0.7040 -0.0005 0.7102
vn -0.0003 -0.7015 0.7127
vn -0.0007 1.0000 0.0000
vn 1.0000 0.0000 0.0000
vn -1.0000 -0.0034 -0.0000
vn -0.0029 -1.0000 -0.0000
vn -0.0007 0.0010 1.0000
vn -0.2747 -0.9615 -0.0032
vn 0.0001 -1.0000 0.0004
vn -0.2735 -0.9619 -0.0004
vn -0.0006 -1.0000 -0.0034
vn 0.7074 -0.7068 -0.0019
vn 1.0000 -0.0006 0.0015
vn 0.7077 0.7065 0.0036
vn 0.0016 1.0000 0.0015
vn -0.2738 0.9618 0.0007
vn -0.0018 1.0000 -0.0068
vn -0.2726 0.9621 -0.0117
vn -1.0000 0.0006 0.0026
vn -0.1943 0.6822 0.7049
vn -0.7069 0.0000 0.7073
vn -0.1951 -0.6810 0.7058
vn -0.0030 0.0003 1.0000
vn -0.0071 0.0200 0.9998
vn -0.0004 -0.7091 0.7051
vn -0.0009 -0.0099 1.0000
vn -0.1931 -0.6795 0.7078
vn -0.0016 -0.0082 1.0000
vn 0.0008 -0.0060 1.0000
vn -0.0002 -0.7088 0.7054
vn -0.0000 0.7100 0.7042
vn 0.0002 0.0186 0.9998
vn -0.1945 0.6821 0.7049
vn 0.0056 0.0014 1.0000
vn -0.0054 -0.0161 0.9999
vn 0.0054 -0.0022 1.0000
vn 0.7134 -0.0009 0.7007
vn 0.0038 0.0001 1.0000
vn 0.5033 -0.5031 0.7025
vn 0.0038 -0.0042 1.0000
vn -0.0063 0.0235 0.9997
vn 0.5142 0.5128 0.6875
vn 0.0073 0.0087 0.9999
vn 0.0015 0.7175 0.6965
vn 0.0006 0.0184 0.9998
vn -0.9177 0.3972 0.0000
vn -0.9177 -0.3972 -0.0000
vn 0.3917 0.9201 0.0000
vn -0.3917 0.9201 0.0000
vn -1.0000 0.0000 0.0000
vn -0.4012 -0.9160 -0.0000
vn 0.4012 -0.9160 -0.0000
vn 0.9282 -0.3720 -0.0000
vn 0.9282 0.3720 0.0000
vn 0.0000 -1.0000 -0.0000
vn 0.0000 1.0000 0.0000
vn -0.7050 0.7092 0.0000
vn 0.7146 0.6995 0.0000
vn -0.7087 -0.7056 -0.0000
vn 0.7182 -0.6958 -0.0000
vn 0.7071 0.0002 0.7071
vn 0.7066 0.0258 0.7071
vn 0.7071 -0.0003 0.7071
vn 0.7071 -0.0002 0.7071
vn 0.7071 -0.0264 0.7067
vn -0.3611 -0.1352 -0.9227
vn -0.3333 -0.1838 -0.9247
vn -0.0350 -0.5494 -0.8348
vn -0.0976 -0.5041 -0.8581
vn -0.0663 -0.5627 -0.8240
vn -0.0608 -0.5637 -0.8238
vn -0.0882 -0.5264 -0.8457
vn -0.0406 -0.5121 -0.8579
vn 0.1246 -0.3988 -0.9085
vn 0.2025 -0.3287 -0.9225
vn 0.3249 -0.1450 -0.9346
vn 0.3328 -0.1276 -0.9343
vn 0.3251 0.1473 -0.9341
vn 0.3329 0.1303 -0.9339
vn 0.1250 0.3998 -0.9080
vn 0.2027 0.3301 -0.9219
vn -0.0873 0.5266 -0.8456
vn -0.0392 0.5122 -0.8580
vn -0.0655 0.5632 -0.8237
vn -0.0604 0.5641 -0.8235
vn -0.0343 0.5497 -0.8347
vn -0.0974 0.5038 -0.8583
vn -0.3335 0.1832 -0.9248
vn -0.3617 0.1338 -0.9226
vn 0.0000 0.0000 1.0000
usemtl blinn1SG.001
s off
f 1/1/1 2/2/1 3/3/1 4/4/1
f 5/5/2 6/6/2 1/7/2 4/8/2
f 7/9/3 8/10/3 6/6/3 5/5/3
f 9/11/4 10/12/4 11/13/4 12/14/4
f 12/14/5 11/13/5 8/10/5 7/9/5
f 10/12/6 9/11/6 13/15/6 14/16/6
f 15/17/7 16/18/7 17/19/7 18/20/7
f 19/21/8 20/22/8 21/23/8 22/24/8
f 18/20/9 19/21/9 22/24/9 15/17/9
f 23/25/10 2/2/10 1/1/10 24/26/10
f 25/27/11 24/26/11 1/1/11 6/28/11
f 26/29/12 25/30/12 6/31/12 8/32/12
f 11/33/13 27/34/13 26/29/13 8/32/13
f 4/8/14 3/35/14 28/36/14 5/5/14
f 5/5/15 28/36/15 29/37/15 7/9/15
f 7/9/16 29/37/16 30/38/16 12/14/16
f 10/39/17 14/40/17 31/41/17 27/34/17
f 32/42/18 13/15/18 9/11/18 33/43/18
f 17/44/19 16/45/19 14/46/19 13/47/19
f 27/34/20 11/33/20 10/39/20
f 14/40/21 16/48/21 15/49/21 31/41/21
f 9/50/22 12/51/22 34/52/22 33/53/22
f 12/51/23 30/54/23 35/55/23 34/52/23
f 32/56/24 36/57/24 17/44/24 13/47/24
f 37/58/25 38/59/25 17/44/25 36/57/25
f 15/49/26 22/60/26 39/61/26 31/41/26
f 40/62/27 39/61/27 22/60/27 21/63/27
f 41/64/28 40/62/28 21/63/28 42/65/28
f 43/66/29 42/67/29 21/23/29 20/22/29
f 43/68/30 44/69/30 45/70/30 42/71/30
f 20/22/31 46/72/31 44/73/31 43/66/31
f 18/20/32 47/74/32 48/75/32 19/21/32
f 19/21/33 48/75/33 46/72/33 20/22/33
f 17/19/34 38/76/34 47/74/34 18/20/34
f 42/71/35 45/70/35 49/77/35 41/78/35
f 28/36/36 3/35/36 2/79/36 50/80/36
f 29/37/37 28/36/37 50/80/37 51/81/37
f 52/82/38 30/38/38 53/83/38 54/84/38
f 30/38/39 29/37/39 51/81/39 53/83/39
f 54/84/40 55/85/40 56/86/40 52/82/40
f 57/87/41 47/74/41 38/76/41 58/88/41
f 48/75/42 59/89/42 60/90/42 46/72/42
f 47/74/43 57/87/43 59/89/43 48/75/43
f 61/91/44 50/92/44 2/2/44 23/25/44
f 62/93/45 51/94/45 50/95/45 61/96/45
f 53/97/46 51/94/46 62/93/46 63/98/46
f 54/99/47 63/98/47 64/100/47 55/101/47
f 65/102/48 66/103/48 52/82/48 56/86/48
f 38/59/49 56/104/49 55/105/49 58/106/49
f 63/98/50 54/99/50 53/97/50
f 55/101/51 64/100/51 57/107/51 58/108/51
f 52/109/52 66/110/52 35/55/52 30/54/52
f 65/111/53 56/104/53 38/59/53 37/58/53
f 57/107/54 64/100/54 67/112/54 59/113/54
f 68/114/55 60/115/55 59/113/55 67/112/55
f 49/116/56 45/117/56 60/115/56 68/114/56
f 44/73/57 46/72/57 60/90/57 45/118/57
f 69/119/58 32/42/58 33/43/58 70/120/58
f 71/121/59 35/55/59 66/110/59
f 34/52/60 72/122/60 70/123/60 33/53/60
f 71/121/61 70/123/61 72/122/61 35/55/61
f 66/103/62 65/102/62 73/124/62 71/125/62
f 70/126/63 74/127/63 75/128/63 69/129/63
f 69/130/64 75/131/64 76/132/64 73/133/64
f 71/121/65 77/134/65 74/135/65 70/123/65
f 73/136/66 76/137/66 77/138/66 71/139/66
f 74/140/67 77/141/67 76/142/67 75/143/67
f 78/144/68 79/145/68 80/146/68 81/147/68
f 82/148/69 83/149/69 80/146/69 79/145/69
f 84/150/70 85/151/70 83/149/70 82/148/70
f 86/152/71 87/153/71 85/151/71 84/150/71
f 87/154/72 86/155/72 88/156/72 89/157/72
f 90/158/73 91/159/73 89/157/73 88/156/73
f 92/160/74 93/161/74 91/159/74 90/158/74
f 94/162/75 95/163/75 93/164/75 92/165/75
f 96/166/76 97/167/76 95/163/76 94/162/76
f 97/167/77 96/166/77 98/168/77 99/169/77
f 99/169/78 98/168/78 100/170/78 101/171/78
f 78/172/79 81/173/79 101/174/79 100/175/79
f 102/176/80 99/177/80 101/178/80 103/179/80
f 103/180/81 101/174/81 81/173/81 104/181/81
f 104/182/82 81/183/82 80/184/82 105/185/82
f 49/186/83 103/179/83 104/182/83 41/187/83
f 68/188/84 102/176/84 103/179/84 49/186/84
f 83/189/85 106/190/85 105/185/85 80/184/85
f 31/191/86 105/185/86 106/190/86 27/192/86
f 85/193/87 107/194/87 106/190/87 83/189/87
f 27/192/88 106/190/88 107/194/88 26/195/88
f 108/196/89 25/197/89 26/195/89 107/194/89
f 107/194/90 85/193/90 87/198/90 108/196/90
f 102/176/91 109/199/91 97/200/91 99/177/91
f 63/201/92 109/199/92 102/176/92 64/202/92
f 109/199/93 110/203/93 95/204/93 97/200/93
f 64/202/94 102/176/94 68/188/94 67/205/94
f 41/187/95 104/182/95 105/185/95 40/206/95
f 39/207/96 40/206/96 105/185/96 31/191/96
f 91/159/97 111/208/97 112/209/97 89/157/97
f 111/210/98 23/211/98 24/212/98 112/213/98
f 112/209/99 108/214/99 87/154/99 89/157/99
f 25/197/100 108/196/100 112/213/100 24/212/100
f 62/215/101 110/203/101 109/199/101 63/201/101
f 93/161/102 113/216/102 111/208/102 91/159/102
f 23/211/103 111/210/103 113/217/103 61/218/103
f 113/217/104 93/219/104 95/204/104 110/203/104
f 61/218/105 113/217/105 110/203/105 62/215/105
f 126/220/106 127/221/106 128/222/106 129/223/106
f 130/224/107 131/225/107 132/226/107 133/227/107
f 134/228/108 135/229/108 136/230/108 137/231/108
f 138/232/109 139/233/109 140/234/109 141/235/109
f 142/236/110 143/237/110 139/238/110 138/239/110
f 135/240/64 144/241/64 145/242/64 136/243/64
f 146/244/111 143/245/111 142/246/111 147/247/111
f 144/248/112 148/249/112 149/250/112 145/251/112
f 150/252/113 151/253/113 152/254/113 153/255/113
f 154/256/114 155/257/114 156/258/114 157/259/114
f 132/260/115 131/261/115 151/262/115 150/263/115
f 127/264/116 154/265/116 157/266/116 128/267/116
f 141/268/117 140/269/117 126/220/117 129/223/117
f 156/258/118 155/257/118 134/270/118 137/271/118
f 146/272/119 147/273/119 130/224/119 133/227/119
f 153/255/120 152/254/120 149/274/120 148/275/120
s 1
f 69/130/121 36/57/121 32/56/122
f 69/130/121 73/133/123 37/58/124 36/57/121
f 73/133/123 65/111/125 37/58/124
f 78/276/126 114/277/127 115/278/128 79/279/129
f 79/279/129 115/278/128 116/280/130 82/281/131
f 82/281/131 116/280/130 117/282/132 84/283/133
f 84/283/133 117/282/132 118/284/134 86/285/135
f 86/285/135 118/284/134 119/286/136 88/287/137
f 88/287/137 119/286/136 120/288/138 90/289/139
f 90/289/139 120/288/138 121/290/140 92/291/141
f 92/291/141 121/290/140 122/292/142 94/293/143
f 94/293/143 122/292/142 123/294/144 96/295/145
f 96/295/145 123/294/144 124/296/146 98/297/147
f 98/297/147 124/296/146 125/298/148 100/299/149
f 100/299/149 125/298/148 114/277/127 78/276/126
f 153/300/150 148/301/150 134/302/150 155/303/150
f 126/304/150 140/305/150 146/306/150 133/307/150
f 132/308/150 150/309/150 154/310/150 127/311/150
f 150/309/150 153/300/150 155/303/150 154/310/150
f 148/301/150 144/312/150 135/313/150 134/302/150
f 132/308/150 127/311/150 126/304/150 133/307/150
f 140/305/150 139/314/150 143/315/150 146/306/150
