# Blender v2.80 (sub 75) OBJ File: ''
# www.blender.org
mtllib 7_Hand.mtl
o Sixi_Retopology_7_Hand.001
v 44.407173 0.925163 63.922989
v 44.520035 0.892431 63.822250
v 44.520035 1.695419 63.413109
v 44.407173 1.757677 63.498802
v 44.407173 0.002313 64.069160
v 44.520035 0.002313 63.963234
v 44.520035 2.332673 62.775860
v 44.407173 2.418365 62.838108
v 44.520035 2.741816 61.972862
v 44.407173 2.842552 62.005604
v 44.520035 2.882796 61.082752
v 44.407173 2.988717 61.082752
v 44.520035 2.741815 60.192635
v 44.407173 2.842552 60.159897
v 44.520035 2.332673 59.389648
v 44.407173 2.418365 59.327389
v 44.520035 1.695418 58.752396
v 44.407173 1.757677 58.666702
v 44.520035 0.892431 58.343254
v 44.407173 0.925162 58.242512
v 44.520035 0.002314 58.202263
v 44.407173 0.002314 58.096340
v 44.520035 -0.887804 58.343254
v 44.407173 -0.920536 58.242512
v 44.520035 -1.690793 58.752396
v 44.407173 -1.753051 58.666702
v 44.520035 -2.328046 59.389648
v 44.407173 -2.413738 59.327389
v 44.520035 -2.737188 60.192635
v 44.407173 -2.837925 60.159897
v 44.520035 -2.878169 61.082752
v 44.407173 -2.984090 61.082752
v 44.520035 -2.737188 61.972862
v 44.407173 -2.837925 62.005604
v 44.520035 -2.328046 62.775860
v 44.407173 -2.413738 62.838108
v 44.520035 -1.690792 63.413101
v 44.407173 -1.753051 63.498795
v 44.520035 -0.887805 63.822250
v 44.407173 -0.920536 63.922989
v 43.897888 0.925163 63.922989
v 43.785027 0.892431 63.822254
v 43.785027 0.002313 63.963238
v 43.897888 0.002313 64.069153
v 43.897888 1.757677 63.498806
v 43.785027 1.695419 63.413113
v 43.897888 2.418365 62.838108
v 43.785027 2.332673 62.775860
v 43.897888 2.842552 62.005604
v 43.785027 2.741816 61.972862
v 43.897888 2.988717 61.082752
v 43.785027 2.882796 61.082756
v 43.897888 2.842552 60.159897
v 43.785027 2.741815 60.192635
v 43.897888 2.418365 59.327389
v 43.785027 2.332673 59.389648
v 43.897888 1.757677 58.666702
v 43.785027 1.695418 58.752396
v 43.897888 0.925162 58.242512
v 43.785027 0.892431 58.343254
v 43.897888 0.002314 58.096340
v 43.785027 0.002314 58.202267
v 43.897888 -0.920536 58.242512
v 43.785027 -0.887804 58.343254
v 43.897888 -1.753051 58.666702
v 43.785027 -1.690793 58.752396
v 43.897888 -2.413738 59.327389
v 43.785027 -2.328046 59.389648
v 43.897888 -2.837925 60.159897
v 43.785027 -2.737188 60.192635
v 43.897888 -2.984090 61.082752
v 43.785027 -2.878169 61.082756
v 43.897888 -2.837925 62.005604
v 43.785027 -2.737188 61.972862
v 43.897888 -2.413738 62.838108
v 43.785027 -2.328046 62.775860
v 43.897888 -1.753051 63.498795
v 43.785027 -1.690792 63.413101
v 43.897888 -0.920536 63.922989
v 43.785027 -0.887805 63.822254
v 44.576904 0.002313 61.082752
v 43.728157 0.002313 61.082752
vt 0.376405 0.560162
vt 0.373270 0.550512
vt 0.450193 0.511318
vt 0.456157 0.519527
vt 0.288000 0.574165
vt 0.288000 0.564017
vt 0.511240 0.450272
vt 0.519449 0.456235
vt 0.550434 0.373348
vt 0.560084 0.376484
vt 0.563939 0.288079
vt 0.574086 0.288079
vt 0.550434 0.202809
vt 0.560084 0.199672
vt 0.511240 0.125886
vt 0.519448 0.119922
vt 0.450193 0.064839
vt 0.456157 0.056630
vt 0.373270 0.025645
vt 0.376405 0.015994
vt 0.288000 0.012139
vt 0.288000 0.001992
vt 0.202730 0.025645
vt 0.199595 0.015994
vt 0.125807 0.064839
vt 0.119843 0.056630
vt 0.064761 0.125886
vt 0.056552 0.119922
vt 0.025566 0.202809
vt 0.015916 0.199672
vt 0.012061 0.288079
vt 0.001914 0.288079
vt 0.025566 0.373348
vt 0.015916 0.376484
vt 0.064761 0.450272
vt 0.056552 0.456235
vt 0.125807 0.511317
vt 0.119843 0.519526
vt 0.202730 0.550512
vt 0.199595 0.560162
vt 0.584498 0.984006
vt 0.587634 0.974356
vt 0.672904 0.987862
vt 0.672904 0.998008
vt 0.504747 0.943371
vt 0.510711 0.935162
vt 0.441455 0.880079
vt 0.449664 0.874115
vt 0.400820 0.800328
vt 0.410470 0.797192
vt 0.386818 0.711922
vt 0.396965 0.711923
vt 0.400820 0.623516
vt 0.410470 0.626653
vt 0.441455 0.543765
vt 0.449664 0.549729
vt 0.504747 0.480474
vt 0.510711 0.488683
vt 0.584499 0.439838
vt 0.587634 0.449489
vt 0.672904 0.425836
vt 0.672904 0.435983
vt 0.761309 0.439838
vt 0.758174 0.449489
vt 0.841061 0.480474
vt 0.835097 0.488683
vt 0.904352 0.543765
vt 0.896143 0.549729
vt 0.944988 0.623516
vt 0.935338 0.626653
vt 0.958990 0.711922
vt 0.948843 0.711923
vt 0.944988 0.800328
vt 0.935338 0.797192
vt 0.904352 0.880079
vt 0.896143 0.874115
vt 0.841061 0.943370
vt 0.835097 0.935161
vt 0.761309 0.984006
vt 0.758174 0.974356
vt 0.958606 0.386025
vt 0.958606 0.470543
vt 0.906902 0.470543
vt 0.906902 0.386025
vt 0.958606 0.537617
vt 0.906902 0.537617
vt 0.843776 0.109014
vt 0.843776 0.189974
vt 0.794249 0.189974
vt 0.794249 0.109014
vt 0.843776 0.279720
vt 0.794249 0.279720
vt 0.843776 0.369466
vt 0.794249 0.369466
vt 0.843776 0.450426
vt 0.794249 0.450426
vt 0.053618 0.461999
vt 0.053618 0.529073
vt 0.001914 0.529073
vt 0.001914 0.461999
vt 0.053618 0.613592
vt 0.001914 0.613592
vt 0.053618 0.707281
vt 0.001914 0.707281
vt 0.053618 0.800971
vt 0.001914 0.800971
vt 0.053618 0.885489
vt 0.001914 0.885489
vt 0.053618 0.952563
vt 0.001914 0.952563
vt 0.900103 0.140933
vt 0.900103 0.221893
vt 0.850576 0.221893
vt 0.850576 0.140933
vt 0.900103 0.311639
vt 0.850576 0.311639
vt 0.900103 0.401385
vt 0.850576 0.401385
vt 0.900103 0.482345
vt 0.850576 0.482345
vt 0.958606 0.047053
vt 0.958606 0.114127
vt 0.906902 0.114127
vt 0.906902 0.047053
vt 0.958606 0.198646
vt 0.906902 0.198646
vt 0.958606 0.292335
vt 0.906902 0.292335
vt 0.288000 0.288079
vt 0.672904 0.711922
vn 0.6843 0.2253 0.6935
vn 0.6843 0.4286 0.5899
vn 0.6843 0.0000 0.7292
vn 0.6843 0.5899 0.4286
vn 0.6843 0.6935 0.2253
vn 0.6843 0.7292 -0.0000
vn 0.6843 0.6935 -0.2253
vn 0.6843 0.5899 -0.4286
vn 0.6843 0.4286 -0.5899
vn 0.6844 0.2253 -0.6935
vn 0.6843 -0.0000 -0.7292
vn 0.6843 -0.2253 -0.6935
vn 0.6843 -0.4286 -0.5899
vn 0.6843 -0.5899 -0.4286
vn 0.6843 -0.6935 -0.2253
vn 0.6843 -0.7292 -0.0000
vn 0.6843 -0.6935 0.2253
vn 0.6843 -0.5899 0.4286
vn 0.6843 -0.4286 0.5899
vn 0.6843 -0.2253 0.6935
vn -0.6843 0.2253 0.6935
vn -0.6843 0.0000 0.7292
vn -0.6843 0.4286 0.5899
vn -0.6843 0.5899 0.4286
vn -0.6843 0.6935 0.2253
vn -0.6843 0.7292 -0.0000
vn -0.6843 0.6935 -0.2253
vn -0.6843 0.5899 -0.4286
vn -0.6843 0.4286 -0.5899
vn -0.6844 0.2253 -0.6935
vn -0.6843 -0.0000 -0.7292
vn -0.6843 -0.2253 -0.6935
vn -0.6843 -0.4286 -0.5899
vn -0.6843 -0.5899 -0.4286
vn -0.6843 -0.6935 -0.2253
vn -0.6843 -0.7292 -0.0000
vn -0.6843 -0.6935 0.2253
vn -0.6843 -0.5899 0.4286
vn -0.6843 -0.4286 0.5899
vn -0.6843 -0.2253 0.6935
vn 0.0000 0.3090 0.9511
vn 0.0000 0.5878 0.8090
vn 0.0000 0.8090 0.5878
vn 0.0000 0.9511 0.3090
vn 0.0000 1.0000 0.0000
vn 0.0000 0.9511 -0.3090
vn 0.0000 0.8090 -0.5878
vn 0.0000 0.5878 -0.8090
vn 0.0000 0.3090 -0.9511
vn 0.0000 0.0000 -1.0000
vn 0.0000 -0.3090 -0.9511
vn 0.0000 -0.5878 -0.8090
vn 0.0000 -0.8090 -0.5878
vn 0.0000 -0.9511 -0.3090
vn 0.0000 -1.0000 0.0000
vn 0.0000 -0.9511 0.3090
vn 0.0000 -0.8090 0.5878
vn 0.0000 -0.5878 0.8090
vn -0.0000 -0.3090 0.9511
vn -0.0000 -0.0000 1.0000
vn 0.9998 0.0116 0.0160
vn 0.9998 0.0061 0.0188
vn 1.0000 -0.0000 0.0000
vn 0.9998 0.0160 0.0116
vn 0.9998 0.0188 0.0061
vn 0.9998 0.0197 -0.0000
vn 0.9998 0.0188 -0.0061
vn 0.9998 0.0160 -0.0116
vn 0.9998 0.0116 -0.0160
vn 0.9998 0.0061 -0.0188
vn 0.9998 0.0000 -0.0197
vn 0.9998 -0.0061 -0.0188
vn 0.9998 -0.0116 -0.0160
vn 0.9998 -0.0160 -0.0116
vn 0.9998 -0.0188 -0.0061
vn 0.9998 -0.0197 0.0000
vn 0.9998 -0.0188 0.0061
vn 0.9998 -0.0160 0.0116
vn 0.9998 -0.0116 0.0160
vn 0.9998 -0.0061 0.0188
vn 0.9998 0.0000 0.0197
vn -0.9998 0.0061 0.0188
vn -0.9998 0.0116 0.0160
vn -1.0000 -0.0000 -0.0000
vn -0.9998 0.0160 0.0116
vn -0.9998 0.0188 0.0061
vn -0.9998 0.0197 -0.0000
vn -0.9998 0.0188 -0.0061
vn -0.9998 0.0160 -0.0116
vn -0.9998 0.0116 -0.0160
vn -0.9998 0.0061 -0.0188
vn -0.9998 0.0000 -0.0197
vn -0.9998 -0.0061 -0.0188
vn -0.9998 -0.0116 -0.0160
vn -0.9998 -0.0160 -0.0116
vn -0.9998 -0.0188 -0.0061
vn -0.9998 -0.0197 -0.0000
vn -0.9998 -0.0188 0.0061
vn -0.9998 -0.0160 0.0116
vn -0.9998 -0.0116 0.0160
vn -0.9998 -0.0061 0.0188
vn -0.9998 0.0000 0.0197
usemtl blinn1SG.007
s 1
f 1/1/1 2/2/1 3/3/2 4/4/2
f 2/2/1 1/1/1 5/5/3 6/6/3
f 4/4/2 3/3/2 7/7/4 8/8/4
f 8/8/4 7/7/4 9/9/5 10/10/5
f 10/10/5 9/9/5 11/11/6 12/12/6
f 12/12/6 11/11/6 13/13/7 14/14/7
f 14/14/7 13/13/7 15/15/8 16/16/8
f 16/16/8 15/15/8 17/17/9 18/18/9
f 18/18/9 17/17/9 19/19/10 20/20/10
f 20/20/10 19/19/10 21/21/11 22/22/11
f 22/22/11 21/21/11 23/23/12 24/24/12
f 24/24/12 23/23/12 25/25/13 26/26/13
f 26/26/13 25/25/13 27/27/14 28/28/14
f 28/28/14 27/27/14 29/29/15 30/30/15
f 30/30/15 29/29/15 31/31/16 32/32/16
f 32/32/16 31/31/16 33/33/17 34/34/17
f 34/34/17 33/33/17 35/35/18 36/36/18
f 36/36/18 35/35/18 37/37/19 38/38/19
f 38/38/19 37/37/19 39/39/20 40/40/20
f 40/40/20 39/39/20 6/6/3 5/5/3
f 41/41/21 42/42/21 43/43/22 44/44/22
f 42/42/21 41/41/21 45/45/23 46/46/23
f 46/46/23 45/45/23 47/47/24 48/48/24
f 48/48/24 47/47/24 49/49/25 50/50/25
f 50/50/25 49/49/25 51/51/26 52/52/26
f 52/52/26 51/51/26 53/53/27 54/54/27
f 54/54/27 53/53/27 55/55/28 56/56/28
f 56/56/28 55/55/28 57/57/29 58/58/29
f 58/58/29 57/57/29 59/59/30 60/60/30
f 60/60/30 59/59/30 61/61/31 62/62/31
f 62/62/31 61/61/31 63/63/32 64/64/32
f 64/64/32 63/63/32 65/65/33 66/66/33
f 66/66/33 65/65/33 67/67/34 68/68/34
f 68/68/34 67/67/34 69/69/35 70/70/35
f 70/70/35 69/69/35 71/71/36 72/72/36
f 72/72/36 71/71/36 73/73/37 74/74/37
f 74/74/37 73/73/37 75/75/38 76/76/38
f 76/76/38 75/75/38 77/77/39 78/78/39
f 78/78/39 77/77/39 79/79/40 80/80/40
f 80/80/40 79/79/40 44/44/22 43/43/22
f 1/81/41 4/82/42 45/83/42 41/84/41
f 4/82/42 8/85/43 47/86/43 45/83/42
f 8/87/43 10/88/44 49/89/44 47/90/43
f 10/88/44 12/91/45 51/92/45 49/89/44
f 12/91/45 14/93/46 53/94/46 51/92/45
f 14/93/46 16/95/47 55/96/47 53/94/46
f 16/97/47 18/98/48 57/99/48 55/100/47
f 18/98/48 20/101/49 59/102/49 57/99/48
f 20/101/49 22/103/50 61/104/50 59/102/49
f 22/103/50 24/105/51 63/106/51 61/104/50
f 24/105/51 26/107/52 65/108/52 63/106/51
f 26/107/52 28/109/53 67/110/53 65/108/52
f 28/111/53 30/112/54 69/113/54 67/114/53
f 30/112/54 32/115/55 71/116/55 69/113/54
f 32/115/55 34/117/56 73/118/56 71/116/55
f 34/117/56 36/119/57 75/120/57 73/118/56
f 36/121/57 38/122/58 77/123/58 75/124/57
f 38/122/58 40/125/59 79/126/59 77/123/58
f 40/125/59 5/127/60 44/128/60 79/126/59
f 5/127/60 1/81/41 41/84/41 44/128/60
f 3/3/61 2/2/62 81/129/63
f 7/7/64 3/3/61 81/129/63
f 9/9/65 7/7/64 81/129/63
f 11/11/66 9/9/65 81/129/63
f 13/13/67 11/11/66 81/129/63
f 15/15/68 13/13/67 81/129/63
f 17/17/69 15/15/68 81/129/63
f 19/19/70 17/17/69 81/129/63
f 21/21/71 19/19/70 81/129/63
f 23/23/72 21/21/71 81/129/63
f 25/25/73 23/23/72 81/129/63
f 27/27/74 25/25/73 81/129/63
f 29/29/75 27/27/74 81/129/63
f 31/31/76 29/29/75 81/129/63
f 33/33/77 31/31/76 81/129/63
f 35/35/78 33/33/77 81/129/63
f 37/37/79 35/35/78 81/129/63
f 39/39/80 37/37/79 81/129/63
f 6/6/81 39/39/80 81/129/63
f 2/2/62 6/6/81 81/129/63
f 42/42/82 46/46/83 82/130/84
f 46/46/83 48/48/85 82/130/84
f 48/48/85 50/50/86 82/130/84
f 50/50/86 52/52/87 82/130/84
f 52/52/87 54/54/88 82/130/84
f 54/54/88 56/56/89 82/130/84
f 56/56/89 58/58/90 82/130/84
f 58/58/90 60/60/91 82/130/84
f 60/60/91 62/62/92 82/130/84
f 62/62/92 64/64/93 82/130/84
f 64/64/93 66/66/94 82/130/84
f 66/66/94 68/68/95 82/130/84
f 68/68/95 70/70/96 82/130/84
f 70/70/96 72/72/97 82/130/84
f 72/72/97 74/74/98 82/130/84
f 74/74/98 76/76/99 82/130/84
f 76/76/99 78/78/100 82/130/84
f 78/78/100 80/80/101 82/130/84
f 80/80/101 43/43/102 82/130/84
f 43/43/102 42/42/82 82/130/84
