0
SECTION
2
HEADER
9
$INSUNITS
70
4
9
$ACADVER
1
AC1014
9
$HANDSEED
5
FFFF
0
ENDSEC
0
SECTION
2
TABLES
0
TABLE
2
VPORT
5
8
100
AcDbSymbolTable
0
ENDTAB
0
TABLE
2
LTYPE
5
5
100
AcDbSymbolTable
0
LTYPE
5
14
100
AcDbSymbolTableRecord
100
AcDbLinetypeTableRecord
2
BYBLOCK
70
0
0
LTYPE
5
15
100
AcDbSymbolTableRecord
100
AcDbLinetypeTableRecord
2
BYLAYER
70
0
0
ENDTAB
0
TABLE
2
LAYER
5
2
100
AcDbSymbolTable
70
2
0
LAYER
5
50
100
AcDbSymbolTableRecord
100
AcDbLayerTableRecord
2
0
70
0
6
CONTINUOUS
0
ENDTAB
0
TABLE
2
STYLE
5
3
100
AcDbSymbolTable
70
1
0
STYLE
5
11
100
AcDbSymbolTableRecord
100
AcDbTextStyleTableRecord
2
STANDARD
70
0
0
ENDTAB
0
TABLE
2
VIEW
5
6
100
AcDbSymbolTable
70
0
0
ENDTAB
0
TABLE
2
UCS
5
7
100
AcDbSymbolTable
70
0
0
ENDTAB
0
TABLE
2
APPID
5
9
100
AcDbSymbolTable
70
2
0
APPID
5
12
100
AcDbSymbolTableRecord
100
AcDbRegAppTableRecord
2
ACAD
70
0
0
ENDTAB
0
TABLE
2
DIMSTYLE
5
A
100
AcDbSymbolTable
70
1
0
ENDTAB
0
TABLE
2
BLOCK_RECORD
5
1
100
AcDbSymbolTable
70
1
0
BLOCK_RECORD
5
1F
100
AcDbSymbolTableRecord
100
AcDbBlockTableRecord
2
*MODEL_SPACE
0
BLOCK_RECORD
5
1B
100
AcDbSymbolTableRecord
100
AcDbBlockTableRecord
2
*PAPER_SPACE
0
ENDTAB
0
ENDSEC
0
SECTION
2
BLOCKS
0
BLOCK
5
20
100
AcDbEntity
100
AcDbBlockBegin
2
*MODEL_SPACE
0
ENDBLK
5
21
100
AcDbEntity
100
AcDbBlockEnd
0
BLOCK
5
1C
100
AcDbEntity
100
AcDbBlockBegin
2
*PAPER_SPACE
0
ENDBLK
5
1D
100
AcDbEntity
100
AcDbBlockEnd
0
ENDSEC
0
SECTION
2
ENTITIES
0
LINE
5
100
100
AcDbEntity
8
0
100
AcDbLine
10
42.95424281734627
20
-180.67500000000001
30
0
11
-42.95424281734627
21
-180.67500000000007
31
0
0
LINE
5
101
100
AcDbEntity
8
0
100
AcDbLine
10
-42.95424281734627
20
-180.67500000000007
30
0
11
-56.500000000000021
21
-133.13465519918637
31
0
0
LINE
5
102
100
AcDbEntity
8
0
100
AcDbLine
10
-56.500000000000021
20
-133.13465519918637
30
0
11
-56.500000000000043
21
-67.861546972614718
31
0
0
LINE
5
103
100
AcDbEntity
8
0
100
AcDbLine
10
-56.500000000000043
20
-67.861546972614718
30
0
11
-68.599999999999994
21
-25.395248165304956
31
0
0
LINE
5
104
100
AcDbEntity
8
0
100
AcDbLine
10
-68.599999999999994
20
-25.395248165304956
30
0
11
-68.599999999999994
21
28.415050378794326
31
0
0
LINE
5
105
100
AcDbEntity
8
0
100
AcDbLine
10
-68.599999999999994
20
28.415050378794326
30
0
11
-28.415050378794334
21
68.599999999999994
31
0
0
LINE
5
106
100
AcDbEntity
8
0
100
AcDbLine
10
-28.415050378794334
20
68.599999999999994
30
0
11
28.415050378794334
21
68.599999999999994
31
0
0
LINE
5
107
100
AcDbEntity
8
0
100
AcDbLine
10
28.415050378794334
20
68.599999999999994
30
0
11
68.599999999999994
21
28.415050378794319
31
0
0
LINE
5
108
100
AcDbEntity
8
0
100
AcDbLine
10
68.599999999999994
20
28.415050378794319
30
0
11
68.599999999999994
21
-25.395248165304967
31
0
0
LINE
5
109
100
AcDbEntity
8
0
100
AcDbLine
10
68.599999999999994
20
-25.395248165304967
30
0
11
56.500000000000043
21
-67.861546972614718
31
0
0
LINE
5
110
100
AcDbEntity
8
0
100
AcDbLine
10
56.500000000000043
20
-67.861546972614718
30
0
11
56.500000000000021
21
-133.13465519918634
31
0
0
LINE
5
111
100
AcDbEntity
8
0
100
AcDbLine
10
56.500000000000021
20
-133.13465519918634
30
0
11
42.95424281734627
21
-180.67500000000001
31
0
0
LINE
5
112
100
AcDbEntity
8
0
100
AcDbLine
10
19.427527953049896
20
-178.72499999999991
30
0
11
17.377934497426843
21
-175.1749999999999
31
0
0
LINE
5
113
100
AcDbEntity
8
0
100
AcDbLine
10
17.377934497426843
20
-175.1749999999999
30
0
11
19.427527953050106
21
-171.625
31
0
0
LINE
5
114
100
AcDbEntity
8
0
100
AcDbLine
10
19.427527953050106
20
-171.625
30
0
11
23.526714864296405
21
-171.62500000000011
31
0
0
LINE
5
115
100
AcDbEntity
8
0
100
AcDbLine
10
23.526714864296405
20
-171.62500000000011
30
0
11
25.57630831991942
21
-175.17500000000013
31
0
0
LINE
5
116
100
AcDbEntity
8
0
100
AcDbLine
10
23.526714864296167
20
-178.72500000000002
30
0
11
19.427527953049896
21
-178.72499999999991
31
0
0
LINE
5
117
100
AcDbEntity
8
0
100
AcDbLine
10
25.57630831991942
20
-175.17500000000013
30
0
11
23.526714864296167
21
-178.72500000000002
31
0
0
LINE
5
118
100
AcDbEntity
8
0
100
AcDbLine
10
47.29012204675832
20
-158.3416182744516
30
0
11
43.314366729153534
21
-159.3399684073562
31
0
0
LINE
5
119
100
AcDbEntity
8
0
100
AcDbLine
10
43.314366729153534
20
-159.3399684073562
30
0
11
40.461892493384191
21
-156.39603836953168
31
0
0
LINE
5
120
100
AcDbEntity
8
0
100
AcDbLine
10
40.461892493384191
20
-156.39603836953168
30
0
11
41.585173575219628
21
-152.45375819880257
31
0
0
LINE
5
121
100
AcDbEntity
8
0
100
AcDbLine
10
41.585173575219628
20
-152.45375819880257
30
0
11
45.560928892824407
21
-151.45540806589796
31
0
0
LINE
5
122
100
AcDbEntity
8
0
100
AcDbLine
10
48.413403128593757
20
-154.39933810372247
30
0
11
47.29012204675832
21
-158.3416182744516
31
0
0
LINE
5
123
100
AcDbEntity
8
0
100
AcDbLine
10
45.560928892824407
20
-151.45540806589796
30
0
11
48.413403128593757
21
-154.39933810372247
31
0
0
LINE
5
124
100
AcDbEntity
8
0
100
AcDbLine
10
53.300000000000018
20
-111.88709345562327
30
0
11
49.749999999999986
21
-113.9366869112464
31
0
0
LINE
5
125
100
AcDbEntity
8
0
100
AcDbLine
10
49.749999999999986
20
-113.9366869112464
30
0
11
46.200000000000053
21
-111.88709345562319
31
0
0
LINE
5
126
100
AcDbEntity
8
0
100
AcDbLine
10
46.200000000000053
20
-111.88709345562319
30
0
11
46.200000000000045
21
-107.78790654437685
31
0
0
LINE
5
127
100
AcDbEntity
8
0
100
AcDbLine
10
46.200000000000045
20
-107.78790654437685
30
0
11
49.750000000000078
21
-105.73831308875371
31
0
0
LINE
5
128
100
AcDbEntity
8
0
100
AcDbLine
10
53.300000000000061
20
-107.78790654437692
30
0
11
53.300000000000018
21
-111.88709345562327
31
0
0
LINE
5
129
100
AcDbEntity
8
0
100
AcDbLine
10
49.750000000000078
20
-105.73831308875371
30
0
11
53.300000000000061
21
-107.78790654437692
31
0
0
LINE
5
130
100
AcDbEntity
8
0
100
AcDbLine
10
46.200000000000031
20
-85.049593455623196
30
0
11
46.200000000000031
21
-80.950406544376818
31
0
0
LINE
5
131
100
AcDbEntity
8
0
100
AcDbLine
10
46.200000000000031
20
-80.950406544376818
30
0
11
49.75000000000005
21
-78.900813088753637
31
0
0
LINE
5
132
100
AcDbEntity
8
0
100
AcDbLine
10
49.75000000000005
20
-78.900813088753637
30
0
11
53.300000000000082
21
-80.950406544376818
31
0
0
LINE
5
133
100
AcDbEntity
8
0
100
AcDbLine
10
53.300000000000082
20
-80.950406544376818
30
0
11
53.300000000000082
21
-85.049593455623196
31
0
0
LINE
5
134
100
AcDbEntity
8
0
100
AcDbLine
10
49.75000000000005
20
-87.099186911246392
30
0
11
46.200000000000031
21
-85.049593455623196
31
0
0
LINE
5
135
100
AcDbEntity
8
0
100
AcDbLine
10
53.300000000000082
20
-85.049593455623196
30
0
11
49.75000000000005
21
-87.099186911246392
31
0
0
LINE
5
136
100
AcDbEntity
8
0
100
AcDbLine
10
54.645857683629764
20
-62.474411524001347
30
0
11
50.642969104353156
21
-63.357710089170858
31
0
0
LINE
5
137
100
AcDbEntity
8
0
100
AcDbLine
10
50.642969104353156
20
-63.357710089170858
30
0
11
47.876565818151704
21
-60.332756173583462
31
0
0
LINE
5
138
100
AcDbEntity
8
0
100
AcDbLine
10
47.876565818151704
20
-60.332756173583462
30
0
11
49.113051111226866
21
-56.424503692826569
31
0
0
LINE
5
139
100
AcDbEntity
8
0
100
AcDbLine
10
49.113051111226866
20
-56.424503692826569
30
0
11
53.115939690503481
21
-55.541205127657058
31
0
0
LINE
5
140
100
AcDbEntity
8
0
100
AcDbLine
10
55.882342976704926
20
-58.56615904324444
30
0
11
54.645857683629764
21
-62.474411524001347
31
0
0
LINE
5
141
100
AcDbEntity
8
0
100
AcDbLine
10
53.115939690503481
20
-55.541205127657058
30
0
11
55.882342976704926
21
-58.56615904324444
31
0
0
LINE
5
142
100
AcDbEntity
8
0
100
AcDbLine
10
59.57649940217523
20
-45.357086476331226
30
0
11
55.596864839391415
21
-46.339859125538247
31
0
0
LINE
5
143
100
AcDbEntity
8
0
100
AcDbLine
10
55.596864839391415
20
-46.339859125538247
30
0
11
52.755941477641684
21
-43.384780820992397
31
0
0
LINE
5
144
100
AcDbEntity
8
0
100
AcDbLine
10
52.755941477641684
20
-43.384780820992397
30
0
11
53.894652678675783
21
-39.446929867239497
31
0
0
LINE
5
145
100
AcDbEntity
8
0
100
AcDbLine
10
53.894652678675783
20
-39.446929867239497
30
0
11
57.874287241459612
21
-38.464157218032476
31
0
0
LINE
5
146
100
AcDbEntity
8
0
100
AcDbLine
10
60.715210603209336
20
-41.419235522578347
30
0
11
59.57649940217523
21
-45.357086476331226
31
0
0
LINE
5
147
100
AcDbEntity
8
0
100
AcDbLine
10
57.874287241459612
20
-38.464157218032476
30
0
11
60.715210603209336
21
-41.419235522578347
31
0
0
LINE
5
148
100
AcDbEntity
8
0
100
AcDbLine
10
64.582076177659545
20
-28.96923580913586
30
0
11
60.517958378693578
21
-29.504287067859085
31
0
0
LINE
5
149
100
AcDbEntity
8
0
100
AcDbLine
10
60.517958378693578
20
-29.504287067859085
30
0
11
58.022531496829465
21
-26.252183439343678
31
0
0
LINE
5
150
100
AcDbEntity
8
0
100
AcDbLine
10
58.022531496829465
20
-26.252183439343678
30
0
11
59.591222413931284
21
-22.465028552105039
31
0
0
LINE
5
151
100
AcDbEntity
8
0
100
AcDbLine
10
59.591222413931284
20
-22.465028552105039
30
0
11
63.655340212897258
21
-21.929977293381814
31
0
0
LINE
5
152
100
AcDbEntity
8
0
100
AcDbLine
10
66.150767094761392
20
-25.182080921897224
30
0
11
64.582076177659545
21
-28.96923580913586
31
0
0
LINE
5
153
100
AcDbEntity
8
0
100
AcDbLine
10
63.655340212897258
20
-21.929977293381814
30
0
11
66.150767094761392
21
-25.182080921897224
31
0
0
LINE
5
154
100
AcDbEntity
8
0
100
AcDbLine
10
66.150767094761392
20
25.182080921897125
30
0
11
63.655340212897201
21
21.929977293381761
31
0
0
LINE
5
155
100
AcDbEntity
8
0
100
AcDbLine
10
63.655340212897201
20
21.929977293381761
30
0
11
59.591222413931256
21
22.465028552105061
31
0
0
LINE
5
156
100
AcDbEntity
8
0
100
AcDbLine
10
59.591222413931256
20
22.465028552105061
30
0
11
58.02253149682948
21
26.252183439343703
31
0
0
LINE
5
157
100
AcDbEntity
8
0
100
AcDbLine
10
58.02253149682948
20
26.252183439343703
30
0
11
60.517958378693677
21
29.504287067859085
31
0
0
LINE
5
158
100
AcDbEntity
8
0
100
AcDbLine
10
64.58207617765963
20
28.969235809135796
30
0
11
66.150767094761392
21
25.182080921897125
31
0
0
LINE
5
159
100
AcDbEntity
8
0
100
AcDbLine
10
60.517958378693677
20
29.504287067859085
30
0
11
64.58207617765963
21
28.969235809135796
31
0
0
LINE
5
160
100
AcDbEntity
8
0
100
AcDbLine
10
29.504287067859089
20
60.517958378693578
30
0
11
26.252183439343678
21
58.022531496829465
31
0
0
LINE
5
161
100
AcDbEntity
8
0
100
AcDbLine
10
26.252183439343678
20
58.022531496829465
30
0
11
22.465028552105039
21
59.591222413931284
31
0
0
LINE
5
162
100
AcDbEntity
8
0
100
AcDbLine
10
22.465028552105039
20
59.591222413931284
30
0
11
21.929977293381818
21
63.655340212897258
31
0
0
LINE
5
163
100
AcDbEntity
8
0
100
AcDbLine
10
21.929977293381818
20
63.655340212897258
30
0
11
25.182080921897231
21
66.150767094761392
31
0
0
LINE
5
164
100
AcDbEntity
8
0
100
AcDbLine
10
28.969235809135863
20
64.582076177659545
30
0
11
29.504287067859089
21
60.517958378693578
31
0
0
LINE
5
165
100
AcDbEntity
8
0
100
AcDbLine
10
25.182080921897231
20
66.150767094761392
30
0
11
28.969235809135863
21
64.582076177659545
31
0
0
CIRCLE
5
166
100
AcDbEntity
8
0
100
AcDbCircle
10
21.477121408673135
20
-175.17500000000001
30
0
40
2.125
210
0
220
0
230
1
0
CIRCLE
5
167
100
AcDbEntity
8
0
100
AcDbCircle
10
44.437647810988977
20
-155.39768823662709
30
0
40
2.125
210
0
220
0
230
1
0
CIRCLE
5
168
100
AcDbEntity
8
0
100
AcDbCircle
10
49.750000000000028
20
-109.83750000000006
30
0
40
2.125
210
0
220
0
230
1
0
CIRCLE
5
169
100
AcDbEntity
8
0
100
AcDbCircle
10
49.75000000000005
20
-83
30
0
40
2.125
210
0
220
0
230
1
0
CIRCLE
5
170
100
AcDbEntity
8
0
100
AcDbCircle
10
51.879454459188807
20
-59.449457679275454
30
0
40
2.125
210
0
220
0
230
1
0
CIRCLE
5
171
100
AcDbEntity
8
0
100
AcDbCircle
10
56.735576118309019
20
-42.402008230110795
30
0
40
2.125
210
0
220
0
230
1
0
CIRCLE
5
172
100
AcDbEntity
8
0
100
AcDbCircle
10
62.086649295795418
20
-25.717132180620446
30
0
40
2.125
210
0
220
0
230
1
0
CIRCLE
5
173
100
AcDbEntity
8
0
100
AcDbCircle
10
62.086649295795425
20
25.717132180620421
30
0
40
2.125
210
0
220
0
230
1
0
CIRCLE
5
174
100
AcDbEntity
8
0
100
AcDbCircle
10
25.717132180620457
20
62.086649295795418
30
0
40
2.125
210
0
220
0
230
1
0
LINE
5
175
100
AcDbEntity
8
0
100
AcDbLine
10
0
20
0
30
0
11
0
21
-55
31
0
0
LINE
5
176
100
AcDbEntity
8
0
100
AcDbLine
10
-19.427527953050106
20
-171.625
30
0
11
-23.526714864296405
21
-171.62500000000011
31
0
0
CIRCLE
5
177
100
AcDbEntity
8
0
100
AcDbCircle
10
-21.477121408673135
20
-175.17500000000001
30
0
40
2.125
210
0
220
0
230
1
0
LINE
5
178
100
AcDbEntity
8
0
100
AcDbLine
10
-25.57630831991942
20
-175.17500000000013
30
0
11
-23.526714864296167
21
-178.72500000000002
31
0
0
LINE
5
179
100
AcDbEntity
8
0
100
AcDbLine
10
-23.526714864296405
20
-171.62500000000011
30
0
11
-25.57630831991942
21
-175.17500000000013
31
0
0
LINE
5
180
100
AcDbEntity
8
0
100
AcDbLine
10
-19.427527953049896
20
-178.72499999999991
30
0
11
-17.377934497426843
21
-175.1749999999999
31
0
0
LINE
5
181
100
AcDbEntity
8
0
100
AcDbLine
10
-17.377934497426843
20
-175.1749999999999
30
0
11
-19.427527953050106
21
-171.625
31
0
0
LINE
5
182
100
AcDbEntity
8
0
100
AcDbLine
10
-23.526714864296167
20
-178.72500000000002
30
0
11
-19.427527953049896
21
-178.72499999999991
31
0
0
LINE
5
183
100
AcDbEntity
8
0
100
AcDbLine
10
-48.413403128593757
20
-154.39933810372247
30
0
11
-47.29012204675832
21
-158.3416182744516
31
0
0
CIRCLE
5
184
100
AcDbEntity
8
0
100
AcDbCircle
10
-44.437647810988977
20
-155.39768823662709
30
0
40
2.125
210
0
220
0
230
1
0
LINE
5
185
100
AcDbEntity
8
0
100
AcDbLine
10
-47.29012204675832
20
-158.3416182744516
30
0
11
-43.314366729153534
21
-159.3399684073562
31
0
0
LINE
5
186
100
AcDbEntity
8
0
100
AcDbLine
10
-45.560928892824407
20
-151.45540806589796
30
0
11
-48.413403128593757
21
-154.39933810372247
31
0
0
LINE
5
187
100
AcDbEntity
8
0
100
AcDbLine
10
-43.314366729153534
20
-159.3399684073562
30
0
11
-40.461892493384191
21
-156.39603836953168
31
0
0
LINE
5
188
100
AcDbEntity
8
0
100
AcDbLine
10
-40.461892493384191
20
-156.39603836953168
30
0
11
-41.585173575219628
21
-152.45375819880257
31
0
0
LINE
5
189
100
AcDbEntity
8
0
100
AcDbLine
10
-41.585173575219628
20
-152.45375819880257
30
0
11
-45.560928892824407
21
-151.45540806589796
31
0
0
LINE
5
190
100
AcDbEntity
8
0
100
AcDbLine
10
-46.200000000000053
20
-111.88709345562319
30
0
11
-46.200000000000045
21
-107.78790654437685
31
0
0
LINE
5
191
100
AcDbEntity
8
0
100
AcDbLine
10
-53.300000000000082
20
-85.049593455623196
30
0
11
-49.75000000000005
21
-87.099186911246392
31
0
0
LINE
5
192
100
AcDbEntity
8
0
100
AcDbLine
10
-53.300000000000061
20
-107.78790654437692
30
0
11
-53.300000000000018
21
-111.88709345562327
31
0
0
LINE
5
193
100
AcDbEntity
8
0
100
AcDbLine
10
-49.750000000000078
20
-105.73831308875371
30
0
11
-53.300000000000061
21
-107.78790654437692
31
0
0
LINE
5
194
100
AcDbEntity
8
0
100
AcDbLine
10
-46.200000000000045
20
-107.78790654437685
30
0
11
-49.750000000000078
21
-105.73831308875371
31
0
0
LINE
5
195
100
AcDbEntity
8
0
100
AcDbLine
10
-53.300000000000018
20
-111.88709345562327
30
0
11
-49.749999999999986
21
-113.9366869112464
31
0
0
LINE
5
196
100
AcDbEntity
8
0
100
AcDbLine
10
-49.75000000000005
20
-78.900813088753637
30
0
11
-53.300000000000082
21
-80.950406544376818
31
0
0
CIRCLE
5
197
100
AcDbEntity
8
0
100
AcDbCircle
10
-49.75000000000005
20
-83
30
0
40
2.125
210
0
220
0
230
1
0
LINE
5
198
100
AcDbEntity
8
0
100
AcDbLine
10
-49.75000000000005
20
-87.099186911246392
30
0
11
-46.200000000000031
21
-85.049593455623196
31
0
0
LINE
5
199
100
AcDbEntity
8
0
100
AcDbLine
10
-46.200000000000031
20
-85.049593455623196
30
0
11
-46.200000000000031
21
-80.950406544376818
31
0
0
LINE
5
200
100
AcDbEntity
8
0
100
AcDbLine
10
-49.749999999999986
20
-113.9366869112464
30
0
11
-46.200000000000053
21
-111.88709345562319
31
0
0
CIRCLE
5
201
100
AcDbEntity
8
0
100
AcDbCircle
10
-49.750000000000028
20
-109.83750000000006
30
0
40
2.125
210
0
220
0
230
1
0
LINE
5
202
100
AcDbEntity
8
0
100
AcDbLine
10
-46.200000000000031
20
-80.950406544376818
30
0
11
-49.75000000000005
21
-78.900813088753637
31
0
0
LINE
5
203
100
AcDbEntity
8
0
100
AcDbLine
10
-53.300000000000082
20
-80.950406544376818
30
0
11
-53.300000000000082
21
-85.049593455623196
31
0
0
LINE
5
204
100
AcDbEntity
8
0
100
AcDbLine
10
-55.882342976704926
20
-58.56615904324444
30
0
11
-54.645857683629764
21
-62.474411524001347
31
0
0
LINE
5
205
100
AcDbEntity
8
0
100
AcDbLine
10
-47.876565818151704
20
-60.332756173583462
30
0
11
-49.113051111226866
21
-56.424503692826569
31
0
0
LINE
5
206
100
AcDbEntity
8
0
100
AcDbLine
10
-49.113051111226866
20
-56.424503692826569
30
0
11
-53.115939690503481
21
-55.541205127657058
31
0
0
CIRCLE
5
207
100
AcDbEntity
8
0
100
AcDbCircle
10
-51.879454459188807
20
-59.449457679275454
30
0
40
2.125
210
0
220
0
230
1
0
LINE
5
208
100
AcDbEntity
8
0
100
AcDbLine
10
-53.115939690503481
20
-55.541205127657058
30
0
11
-55.882342976704926
21
-58.56615904324444
31
0
0
LINE
5
209
100
AcDbEntity
8
0
100
AcDbLine
10
-54.645857683629764
20
-62.474411524001347
30
0
11
-50.642969104353156
21
-63.357710089170858
31
0
0
LINE
5
210
100
AcDbEntity
8
0
100
AcDbLine
10
-50.642969104353156
20
-63.357710089170858
30
0
11
-47.876565818151704
21
-60.332756173583462
31
0
0
LINE
5
211
100
AcDbEntity
8
0
100
AcDbLine
10
-53.894652678675783
20
-39.446929867239497
30
0
11
-57.874287241459612
21
-38.464157218032476
31
0
0
LINE
5
212
100
AcDbEntity
8
0
100
AcDbLine
10
-59.57649940217523
20
-45.357086476331226
30
0
11
-55.596864839391415
21
-46.339859125538247
31
0
0
LINE
5
213
100
AcDbEntity
8
0
100
AcDbLine
10
-55.596864839391415
20
-46.339859125538247
30
0
11
-52.755941477641684
21
-43.384780820992397
31
0
0
LINE
5
214
100
AcDbEntity
8
0
100
AcDbLine
10
-60.715210603209336
20
-41.419235522578347
30
0
11
-59.57649940217523
21
-45.357086476331226
31
0
0
LINE
5
215
100
AcDbEntity
8
0
100
AcDbLine
10
-52.755941477641684
20
-43.384780820992397
30
0
11
-53.894652678675783
21
-39.446929867239497
31
0
0
CIRCLE
5
216
100
AcDbEntity
8
0
100
AcDbCircle
10
-56.735576118309019
20
-42.402008230110795
30
0
40
2.125
210
0
220
0
230
1
0
LINE
5
217
100
AcDbEntity
8
0
100
AcDbLine
10
-57.874287241459612
20
-38.464157218032476
30
0
11
-60.715210603209336
21
-41.419235522578347
31
0
0
LINE
5
218
100
AcDbEntity
8
0
100
AcDbLine
10
-58.022531496829465
20
-26.252183439343678
30
0
11
-59.591222413931284
21
-22.465028552105039
31
0
0
LINE
5
219
100
AcDbEntity
8
0
100
AcDbLine
10
-63.655340212897258
20
-21.929977293381814
30
0
11
-66.150767094761392
21
-25.182080921897224
31
0
0
LINE
5
220
100
AcDbEntity
8
0
100
AcDbLine
10
-59.591222413931284
20
-22.465028552105039
30
0
11
-63.655340212897258
21
-21.929977293381814
31
0
0
LINE
5
221
100
AcDbEntity
8
0
100
AcDbLine
10
-64.582076177659545
20
-28.96923580913586
30
0
11
-60.517958378693578
21
-29.504287067859085
31
0
0
CIRCLE
5
222
100
AcDbEntity
8
0
100
AcDbCircle
10
-62.086649295795418
20
-25.717132180620446
30
0
40
2.125
210
0
220
0
230
1
0
LINE
5
223
100
AcDbEntity
8
0
100
AcDbLine
10
-60.517958378693578
20
-29.504287067859085
30
0
11
-58.022531496829465
21
-26.252183439343678
31
0
0
LINE
5
224
100
AcDbEntity
8
0
100
AcDbLine
10
-66.150767094761392
20
-25.182080921897224
30
0
11
-64.582076177659545
21
-28.96923580913586
31
0
0
LINE
5
225
100
AcDbEntity
8
0
100
AcDbLine
10
-58.02253149682948
20
26.252183439343703
30
0
11
-60.517958378693677
21
29.504287067859085
31
0
0
LINE
5
226
100
AcDbEntity
8
0
100
AcDbLine
10
-63.655340212897201
20
21.929977293381761
30
0
11
-59.591222413931256
21
22.465028552105061
31
0
0
CIRCLE
5
227
100
AcDbEntity
8
0
100
AcDbCircle
10
-62.086649295795425
20
25.717132180620421
30
0
40
2.125
210
0
220
0
230
1
0
LINE
5
228
100
AcDbEntity
8
0
100
AcDbLine
10
-60.517958378693677
20
29.504287067859085
30
0
11
-64.58207617765963
21
28.969235809135796
31
0
0
LINE
5
229
100
AcDbEntity
8
0
100
AcDbLine
10
-59.591222413931256
20
22.465028552105061
30
0
11
-58.02253149682948
21
26.252183439343703
31
0
0
LINE
5
230
100
AcDbEntity
8
0
100
AcDbLine
10
-66.150767094761392
20
25.182080921897125
30
0
11
-63.655340212897201
21
21.929977293381761
31
0
0
LINE
5
231
100
AcDbEntity
8
0
100
AcDbLine
10
-64.58207617765963
20
28.969235809135796
30
0
11
-66.150767094761392
21
25.182080921897125
31
0
0
CIRCLE
5
232
100
AcDbEntity
8
0
100
AcDbCircle
10
-25.717132180620457
20
62.086649295795418
30
0
40
2.125
210
0
220
0
230
1
0
LINE
5
233
100
AcDbEntity
8
0
100
AcDbLine
10
-25.182080921897231
20
66.150767094761392
30
0
11
-28.969235809135863
21
64.582076177659545
31
0
0
LINE
5
234
100
AcDbEntity
8
0
100
AcDbLine
10
-29.504287067859089
20
60.517958378693578
30
0
11
-26.252183439343678
21
58.022531496829465
31
0
0
LINE
5
235
100
AcDbEntity
8
0
100
AcDbLine
10
-26.252183439343678
20
58.022531496829465
30
0
11
-22.465028552105039
21
59.591222413931284
31
0
0
LINE
5
236
100
AcDbEntity
8
0
100
AcDbLine
10
-22.465028552105039
20
59.591222413931284
30
0
11
-21.929977293381818
21
63.655340212897258
31
0
0
LINE
5
237
100
AcDbEntity
8
0
100
AcDbLine
10
-28.969235809135863
20
64.582076177659545
30
0
11
-29.504287067859089
21
60.517958378693578
31
0
0
LINE
5
238
100
AcDbEntity
8
0
100
AcDbLine
10
-21.929977293381818
20
63.655340212897258
30
0
11
-25.182080921897231
21
66.150767094761392
31
0
0
LINE
5
239
100
AcDbEntity
8
0
100
AcDbLine
10
124.99999999999989
20
94.999999999999858
30
0
11
-124.99999999999972
21
94.999999999999858
31
0
0
LINE
5
240
100
AcDbEntity
8
0
100
AcDbLine
10
-124.99999999999972
20
94.999999999999858
30
0
11
-125.00000000000009
21
-205.00000000000014
31
0
0
LINE
5
241
100
AcDbEntity
8
0
100
AcDbLine
10
-125.00000000000009
20
-205.00000000000014
30
0
11
124.99999999999989
21
-205.00000000000014
31
0
0
LINE
5
242
100
AcDbEntity
8
0
100
AcDbLine
10
124.99999999999989
20
-205.00000000000014
30
0
11
124.99999999999989
21
94.999999999999858
31
0
0
LINE
5
243
100
AcDbEntity
8
0
100
AcDbLine
10
124.99999999999989
20
94.999999999999858
30
0
11
-125.00000000000009
21
-205.00000000000014
31
0
0
LINE
5
244
100
AcDbEntity
8
0
100
AcDbLine
10
-124.99999999999972
20
94.999999999999858
30
0
11
124.99999999999989
21
-205.00000000000014
31
0
0
ENDSEC
0
SECTION
2
OBJECTS
0
DICTIONARY
5
C
100
AcDbDictionary
3
ACAD_GROUP
350
D
3
ACAD_MLINESTYLE
350
17
0
DICTIONARY
5
D
100
AcDbDictionary
0
DICTIONARY
5
1A
330
C
100
AcDbDictionary
0
DICTIONARY
5
17
100
AcDbDictionary
0
ENDSEC
0
EOF
